<svg width="52" height="53" viewBox="0 0 52 53" fill="none" xmlns="http://www.w3.org/2000/svg">
<path d="M33.9511 33.8866H0V27.713H27.7657V0H33.9511V33.8866Z" fill="#5AFF15"/>
<path d="M42.8592 5.10547L40.9163 7.05014L45.8558 11.9803H34.2424C28.2583 11.9861 22.5211 14.3621 18.2907 18.5865C14.0603 22.8109 11.6826 28.5384 11.6797 34.5111V40.5369C10.1949 40.878 8.88794 41.7528 8.00801 42.9942C7.12808 44.2357 6.7368 45.757 6.9088 47.268C7.0808 48.779 7.80404 50.1739 8.94058 51.1867C10.0771 52.1995 11.5474 52.7593 13.071 52.7593C14.5946 52.7593 16.0649 52.1995 17.2015 51.1867C18.338 50.1739 19.0612 48.779 19.2332 47.268C19.4052 45.757 19.014 44.2357 18.134 42.9942C17.2541 41.7528 15.9471 40.878 14.4623 40.5369V34.5111C14.4739 29.2845 16.5593 24.2752 20.2622 20.5793C23.965 16.8835 28.9838 14.8021 34.2205 14.7905H45.8558L40.8285 19.8083L42.7713 21.753L51.1301 13.3607L42.8592 5.10547ZM16.4656 46.5626C16.4656 47.2376 16.265 47.8975 15.8893 48.4587C15.5136 49.0199 14.9796 49.4573 14.3548 49.7156C13.73 49.9739 13.0425 50.0415 12.3793 49.9098C11.716 49.7782 11.1067 49.4531 10.6285 48.9758C10.1503 48.4986 9.8247 47.8905 9.69276 47.2284C9.56083 46.5664 9.62854 45.8802 9.88734 45.2566C10.1461 44.633 10.5844 44.1 11.1467 43.725C11.709 43.35 12.3701 43.1499 13.0463 43.1499C13.9527 43.1513 14.8216 43.5114 15.4625 44.1511C16.1034 44.7908 16.4641 45.658 16.4656 46.5626V46.5626Z" fill="#007AFF"/>
<path d="M33.951 0H27.7656V27.6692H33.951V0Z" fill="#5AFF15"/>
</svg>
