<svg width="60" height="60" viewBox="0 0 60 60" fill="none" xmlns="http://www.w3.org/2000/svg">
<circle cx="30" cy="30" r="30" fill="#141414"/>
<path d="M42.8987 22.8311H34.8808V20.831H42.8987V22.8311ZM29.5436 31.0345C30.0598 31.8397 30.318 32.8173 30.318 33.9639C30.318 35.1507 30.0262 36.2152 29.4346 37.1557C29.0696 37.7652 28.5912 38.2983 28.0253 38.7258C27.3622 39.2287 26.5933 39.5725 25.7775 39.7307C24.8522 39.916 23.9105 40.0061 22.967 39.9997H14V20H23.6163C26.0389 20.0403 27.756 20.7456 28.7724 22.1306C29.3817 22.9809 29.6831 23.9986 29.6831 25.1855C29.6831 26.4078 29.3785 27.3853 28.7628 28.1293C28.4213 28.5464 27.9163 28.9249 27.2477 29.2679C28.2594 29.6399 29.0273 30.2261 29.542 31.0345H29.5436ZM18.5933 27.8862H22.8051C23.6709 27.8862 24.3715 27.7203 24.9102 27.3902C25.4489 27.06 25.7182 26.4722 25.7182 25.6316C25.7182 24.7008 25.3623 24.084 24.6488 23.7861C24.0348 23.5799 23.2508 23.4737 22.2985 23.4737H18.5917V27.8862H18.5933ZM26.1238 33.6788C26.1238 32.6401 25.7006 31.9219 24.8573 31.537C24.3843 31.3163 23.719 31.2052 22.866 31.1972H18.5917V36.5276H22.8019C23.666 36.5276 24.3346 36.4133 24.8172 36.1766C25.6878 35.7401 26.1254 34.9108 26.1254 33.6788H26.1238ZM45.8728 30.4258C45.969 31.0796 46.0139 32.0282 45.9962 33.2698H35.6119C35.6696 34.7095 36.1635 35.716 37.103 36.2925C37.6689 36.6532 38.3535 36.8304 39.1583 36.8304C40.0049 36.8304 40.6959 36.6146 41.2265 36.1717C41.5167 35.9382 41.7716 35.6081 41.9929 35.1894H45.799C45.6996 36.0397 45.2411 36.9029 44.4186 37.7789C43.1424 39.1719 41.3532 39.8708 39.0541 39.8708C37.1559 39.8708 35.4821 39.2814 34.0295 38.1074C32.5818 36.9286 31.8555 35.0187 31.8555 32.3679C31.8555 29.8831 32.508 27.9812 33.8179 26.6574C35.1326 25.3305 36.8288 24.6702 38.9195 24.6702C40.1604 24.6702 41.2762 24.8924 42.2735 25.3401C43.2675 25.7878 44.0884 26.4932 44.7361 27.461C45.3213 28.3145 45.698 29.3001 45.8744 30.4242L45.8728 30.4258ZM42.126 30.7978C42.057 29.8026 41.7252 29.0489 41.1303 28.5336C40.5387 28.0182 39.7996 27.759 38.9195 27.759C37.9607 27.759 37.22 28.0359 36.6957 28.5803C36.1667 29.123 35.8364 29.8621 35.7017 30.7978H42.126Z" fill="white"/>
</svg>
