<svg width="1920" height="410" viewBox="0 0 1920 410" fill="none" xmlns="http://www.w3.org/2000/svg">
<mask id="mask0_660_5070" style="mask-type:alpha" maskUnits="userSpaceOnUse" x="0" y="0" width="1920" height="410">
<path d="M0 0H1920V410H0V0Z" fill="#007AFF"/>
</mask>
<g mask="url(#mask0_660_5070)">
<path d="M1834.43 250.838L1590.14 368.21L1568.8 323.788L1768.58 227.8L1672.77 28.3934L1717.28 7.00981L1834.43 250.838Z" fill="#5AFF15"/>
<path d="M1799.03 12.9493L1791.77 33.6587L1844.36 52.0567L1760.8 92.2055C1717.76 112.935 1684.69 149.865 1668.85 194.887C1653.02 239.908 1655.71 289.339 1676.34 332.326L1697.17 375.683C1687.67 383.271 1681.29 394.084 1679.25 406.058C1677.21 418.033 1679.65 430.332 1686.11 440.61C1692.57 450.888 1702.6 458.424 1714.28 461.783C1725.96 465.141 1738.47 464.086 1749.44 458.819C1760.4 453.551 1769.04 444.441 1773.72 433.224C1778.4 422.007 1778.78 409.47 1774.79 398.003C1770.81 386.536 1762.73 376.943 1752.11 371.052C1741.48 365.161 1729.06 363.385 1717.19 366.064L1696.36 322.706C1678.38 285.058 1676.06 241.804 1689.93 202.41C1703.8 163.016 1732.71 130.689 1770.35 112.502L1854.07 72.2772L1835.25 125.762L1855.95 133.038L1887.08 43.7557L1799.03 12.9493ZM1752.44 402.496C1754.77 407.353 1755.61 412.794 1754.85 418.131C1754.08 423.468 1751.75 428.461 1748.15 432.48C1744.55 436.499 1739.84 439.362 1734.61 440.707C1729.38 442.053 1723.87 441.82 1718.78 440.039C1713.69 438.258 1709.25 435.008 1706.01 430.701C1702.77 426.394 1700.88 421.222 1700.59 415.84C1700.3 410.458 1701.61 405.108 1704.36 400.466C1707.11 395.824 1711.17 392.098 1716.04 389.76C1722.56 386.637 1730.06 386.224 1736.88 388.611C1743.71 390.998 1749.3 395.991 1752.44 402.496V402.496Z" fill="#0E0638"/>
<path d="M1717.28 7.00949L1672.77 28.3931L1768.43 227.484L1812.94 206.1L1717.28 7.00949Z" fill="#5AFF15"/>
</g>
</svg>
