<svg width="60" height="60" viewBox="0 0 60 60" fill="none" xmlns="http://www.w3.org/2000/svg">
<circle cx="30" cy="30" r="30" fill="#141414"/>
<path d="M42.8 43H17.2C16.3513 43 15.5374 42.6576 14.9373 42.0481C14.3371 41.4386 14 40.612 14 39.75V20.1086C14.0359 19.2714 14.3888 18.4806 14.9851 17.9014C15.5814 17.3221 16.3749 16.9992 17.2 17H42.8C43.6487 17 44.4626 17.3424 45.0627 17.9519C45.6629 18.5614 46 19.388 46 20.25V39.75C46 40.612 45.6629 41.4386 45.0627 42.0481C44.4626 42.6576 43.6487 43 42.8 43ZM17.2 23.2855V39.75H42.8V23.2855L30 31.95L17.2 23.2855ZM18.48 20.25L30 28.05L41.52 20.25H18.48Z" fill="white"/>
</svg>
