<svg width="60" height="60" viewBox="0 0 60 60" fill="none" xmlns="http://www.w3.org/2000/svg">
<circle cx="30" cy="30" r="30" fill="#141414"/>
<path fill-rule="evenodd" clip-rule="evenodd" d="M26.6577 26.0597H31.4859V28.4647C32.1814 27.0815 33.965 25.8387 36.6443 25.8387C41.7806 25.8387 43 28.5921 43 33.6439V43H37.8V34.7944C37.8 31.9175 37.1045 30.2951 35.3339 30.2951C32.8782 30.2951 31.8577 32.0436 31.8577 34.7931V43H26.6577V26.0597ZM17.741 42.779H22.941V25.8387H17.741V42.779ZM23.6859 20.315C23.6861 20.7509 23.5997 21.1824 23.4316 21.5846C23.2636 21.9867 23.0172 22.3515 22.707 22.6576C22.0783 23.2824 21.2274 23.6321 20.341 23.63C19.4562 23.6294 18.6072 23.2806 17.9776 22.6589C17.6685 22.3517 17.423 21.9866 17.2552 21.5844C17.0875 21.1822 17.0008 20.7508 17 20.315C17 19.4349 17.351 18.5925 17.9789 17.9711C18.608 17.3486 19.4573 16.9996 20.3423 17C21.2289 17 22.0791 17.3497 22.707 17.9711C23.3336 18.5925 23.6859 19.4349 23.6859 20.315Z" fill="white"/>
</svg>
