<svg width="300" height="53" viewBox="0 0 300 53" fill="none" xmlns="http://www.w3.org/2000/svg">
<g clip-path="url(#clip0_560_5024)">
<path d="M89.3121 18.1488C89.3121 29.1047 82.3418 30.8248 73.2256 30.8248H68.4617V41.5616H60.2676V5.5166H73.2256C82.3254 5.5166 89.3121 7.25859 89.3121 18.1488ZM81.1124 18.1488C81.1124 13.1857 78.6042 12.6708 73.7361 12.6708H68.4617V23.6706H73.7361C78.6042 23.6706 81.1124 23.1556 81.1124 18.1488Z" fill="white"/>
<path d="M92.8965 19.6274C92.8965 16.8172 94.4826 15.2834 97.2872 15.3327L114.241 15.7435V22.9032L101.069 22.5965V41.5612H92.8965V19.6274Z" fill="white"/>
<path d="M130.909 15.2344C138.999 15.2344 145.453 19.6167 145.453 28.628C145.453 37.6392 138.999 42.0764 130.909 42.0764C122.819 42.0764 116.305 37.694 116.305 28.628C116.305 19.562 122.759 15.2344 130.909 15.2344ZM130.909 34.9167C134.751 34.9167 137.259 32.972 137.259 28.628C137.259 24.284 134.751 22.3886 130.909 22.3886C127.067 22.3886 124.504 24.3333 124.504 28.628C124.504 32.9227 127.013 34.9167 130.909 34.9167V34.9167Z" fill="white"/>
<path d="M170.349 34.4071V41.5613L156.968 42.0763C154.152 42.1749 152.616 40.5424 152.616 37.7268V22.9034H146.469V15.7437H152.616V10.8848L160.81 8.33203V15.7437H169.311V22.9034H160.81V34.9166L170.349 34.4071Z" fill="white"/>
<path d="M186.994 15.2344C195.089 15.2344 201.543 19.6167 201.543 28.628C201.543 37.6392 195.089 42.0764 186.994 42.0764C178.898 42.0764 172.395 37.694 172.395 28.628C172.395 19.562 178.849 15.2344 186.994 15.2344ZM186.994 34.9167C190.835 34.9167 193.349 32.972 193.349 28.628C193.349 24.284 190.835 22.3886 186.994 22.3886C183.152 22.3886 180.594 24.3333 180.594 28.628C180.594 32.9227 183.102 34.9167 186.994 34.9167V34.9167Z" fill="white"/>
<path d="M238.12 23.5172C238.12 39.0581 228.081 41.5616 218.449 41.5616H205.129V5.5166H218.438C228.081 5.5166 238.12 8.02551 238.12 23.5172ZM229.925 23.5172C229.925 13.1857 224.854 12.6763 218.449 12.6763H213.329V34.4073H218.438C224.854 34.4073 229.925 33.8924 229.925 23.5172Z" fill="white"/>
<path d="M254.304 15.2344C262.35 15.2344 267.987 19.9892 267.987 27.8337V30.3864H248.366C248.366 33.3555 250.517 35.448 255.177 35.448C258.047 35.448 260.199 34.4291 260.709 32.4845H268.931C268.42 36.215 264.167 42.0983 255.21 42.0983C245.27 42.0983 240.715 35.6562 240.715 28.3431C240.682 20.1426 246.264 15.2344 254.304 15.2344ZM260.298 25.7466C260.298 23.8074 258.865 21.8627 254.304 21.8627C249.743 21.8627 248.366 23.8238 248.366 25.7466H260.298Z" fill="white"/>
<path d="M300 15.7437L293.414 41.5613H276.51L269.924 15.7437H278.019L283.958 39.518H286.01L291.899 15.7437H300Z" fill="white"/>
<path d="M33.9511 33.8866H0V27.713H27.7657V0H33.9511V33.8866Z" fill="#5AFF15"/>
<path d="M42.8592 5.10547L40.9163 7.05014L45.8558 11.9803H34.2424C28.2583 11.9861 22.5211 14.3621 18.2907 18.5865C14.0603 22.8109 11.6826 28.5384 11.6797 34.5111V40.5369C10.1949 40.878 8.88794 41.7528 8.00801 42.9942C7.12808 44.2357 6.7368 45.757 6.9088 47.268C7.0808 48.779 7.80404 50.1739 8.94058 51.1867C10.0771 52.1995 11.5474 52.7593 13.071 52.7593C14.5946 52.7593 16.0649 52.1995 17.2015 51.1867C18.338 50.1739 19.0612 48.779 19.2332 47.268C19.4052 45.757 19.014 44.2357 18.134 42.9942C17.2541 41.7528 15.9471 40.878 14.4623 40.5369V34.5111C14.4739 29.2845 16.5593 24.2752 20.2622 20.5793C23.965 16.8835 28.9838 14.8021 34.2205 14.7905H45.8558L40.8285 19.8083L42.7713 21.753L51.1301 13.3607L42.8592 5.10547ZM16.4656 46.5626C16.4656 47.2376 16.265 47.8975 15.8893 48.4587C15.5136 49.0199 14.9796 49.4573 14.3548 49.7156C13.73 49.9739 13.0425 50.0415 12.3793 49.9098C11.716 49.7782 11.1067 49.4531 10.6285 48.9758C10.1503 48.4986 9.8247 47.8905 9.69276 47.2284C9.56083 46.5664 9.62854 45.8802 9.88734 45.2566C10.1461 44.633 10.5844 44.1 11.1467 43.725C11.709 43.35 12.3701 43.1499 13.0463 43.1499C13.9527 43.1513 14.8216 43.5114 15.4625 44.1511C16.1034 44.7908 16.4641 45.658 16.4656 46.5626V46.5626Z" fill="#007AFF"/>
<path d="M33.951 0H27.7656V27.6692H33.951V0Z" fill="#5AFF15"/>
</g>
<defs>
<clipPath id="clip0_560_5024">
<rect width="300" height="52.7473" fill="white"/>
</clipPath>
</defs>
</svg>
