<svg width="312" height="65" viewBox="0 0 312 65" fill="none" xmlns="http://www.w3.org/2000/svg">
<rect x="0.5" y="0.5" width="311" height="64" rx="32" fill="#141414" stroke="#007AFF"/>
<path d="M49.7342 34.44C49.7342 31.5 46.5342 30.74 43.7742 29.88C41.4542 29.16 40.2142 28.62 40.2142 27.14C40.2142 25.58 41.6342 25.1 43.5742 25.1C45.7342 25.1 47.5142 26.14 47.5142 28.54H49.1542C49.1542 26.24 47.7342 23.7 43.5742 23.7C40.0942 23.7 38.5742 25.02 38.5742 27.18C38.5742 29.68 40.5942 30.44 43.3742 31.28C45.6142 31.94 48.0942 32.38 48.0942 34.52C48.0942 36.22 46.7142 36.8 44.3142 36.8C41.3542 36.8 39.5742 36.06 39.5742 32.72H37.9342C37.9342 36.02 39.3942 38.2 44.3142 38.2C48.4742 38.2 49.7342 36.54 49.7342 34.44ZM54.8308 36.82V29.46H57.9308V28.06H54.8308V25L53.2108 25.5V28.06H51.0108V29.46H53.2108V36.84C53.2108 37.76 53.6308 38.26 54.5708 38.2L58.3308 38V36.6L54.8308 36.82ZM60.2241 35.24C60.2241 36.28 60.6641 38.2 63.5441 38.2C65.9441 38.2 67.0041 36.78 67.3841 35.26H67.8641L67.6041 36.3V36.84C67.6041 37.58 68.0241 38 68.7841 38H70.5441V36.6H69.0841V32.36C69.0841 29.7 67.4241 27.86 64.6441 27.86C61.8241 27.86 60.2641 29.7 60.2641 31.76H61.8641C61.8641 29.88 63.2041 29.24 64.6441 29.24C66.3641 29.24 67.3441 30.14 67.4441 31.96L63.4841 32.34C61.1641 32.58 60.2241 33.66 60.2241 35.24ZM61.8641 35.04C61.8641 34.06 62.5041 33.68 63.7641 33.56L67.4441 33.18C67.4441 35.24 66.0041 36.8 63.7441 36.8C62.5841 36.8 61.8641 36.18 61.8641 35.04ZM72.4209 38H74.0609V29.28L79.3209 29.46V28.06L73.8009 27.88C72.8609 27.84 72.4209 28.3 72.4209 29.24V38ZM84.2644 36.82V29.46H87.3644V28.06H84.2644V25L82.6444 25.5V28.06H80.4444V29.46H82.6444V36.84C82.6444 37.76 83.0644 38.26 84.0044 38.2L87.7644 38V36.6L84.2644 36.82ZM96.7373 38H98.3773V25.54L98.1173 24.36H98.5773L105.597 38H108.897V23.9H107.277V36.36L107.537 37.54H107.077L100.037 23.9H96.7373V38ZM111.142 32.9C111.142 35.76 112.642 38.2 116.202 38.2C119.362 38.2 120.562 36.06 120.942 34.52H119.302C118.942 36.04 117.842 36.84 116.202 36.84C113.742 36.84 112.842 35.22 112.742 33.34H120.602V32.7C120.602 29.64 118.762 27.86 115.962 27.86C113.142 27.86 111.142 29.7 111.142 32.9ZM112.742 32.1C112.742 30.5 114.002 29.24 115.962 29.24C117.942 29.24 119.002 30.5 119.002 32.1H112.742ZM122.007 28.06L124.527 38H127.887L129.907 28.54H130.387L132.407 38H135.747L138.267 28.06H136.727L134.307 37.54H133.847L131.827 28.06H128.447L126.447 37.54H125.967L123.567 28.06H122.007ZM150.815 23.9H146.855V38H148.495V33.14H150.815C154.375 33.14 156.635 32.2 156.635 28.5C156.635 24.82 154.375 23.9 150.815 23.9ZM150.835 31.74H148.495V25.3H150.835C153.235 25.3 154.995 25.74 154.995 28.5C154.995 31.3 153.235 31.74 150.835 31.74ZM158.905 38H160.545V29.28L165.805 29.46V28.06L160.285 27.88C159.345 27.84 158.905 28.3 158.905 29.24V38ZM166.63 33.02C166.63 35.92 168.71 38.2 171.89 38.2C175.05 38.2 177.11 35.92 177.11 33.02C177.11 30.14 175.05 27.86 171.89 27.86C168.71 27.86 166.63 30.14 166.63 33.02ZM168.27 33.02C168.27 30.96 169.53 29.26 171.89 29.26C174.23 29.26 175.49 30.96 175.49 33.02C175.49 35.1 174.23 36.8 171.89 36.8C169.53 36.8 168.27 35.1 168.27 33.02ZM180.878 26.48C181.698 26.48 182.338 25.88 182.338 25.08C182.338 24.32 181.698 23.7 180.878 23.7C180.058 23.7 179.438 24.32 179.438 25.08C179.438 25.88 180.058 26.48 180.878 26.48ZM178.198 41.66H179.998L181.638 38.76C181.898 38.3 181.978 37.92 181.978 37.4V29.06C181.978 28.3 181.558 27.8 180.618 27.88L178.198 28.06V29.46L180.338 29.28V37.16C180.338 37.68 180.258 38.06 179.998 38.52L178.198 41.66ZM184.443 32.9C184.443 35.76 185.943 38.2 189.503 38.2C192.663 38.2 193.863 36.06 194.243 34.52H192.603C192.243 36.04 191.143 36.84 189.503 36.84C187.043 36.84 186.143 35.22 186.043 33.34H193.903V32.7C193.903 29.64 192.063 27.86 189.263 27.86C186.443 27.86 184.443 29.7 184.443 32.9ZM186.043 32.1C186.043 30.5 187.303 29.24 189.263 29.24C191.243 29.24 192.303 30.5 192.303 32.1H186.043ZM196.103 33.02C196.103 35.9 197.963 38.2 201.183 38.2C203.103 38.2 205.563 37.12 205.823 34.24H204.163C203.883 36.14 202.623 36.8 201.183 36.8C198.823 36.8 197.743 35.08 197.743 33.02C197.743 30.98 198.823 29.26 201.183 29.26C202.623 29.26 203.883 29.92 204.163 31.82H205.823C205.563 28.94 203.103 27.86 201.183 27.86C197.963 27.86 196.103 30.16 196.103 33.02ZM210.553 36.82V29.46H213.653V28.06H210.553V25L208.933 25.5V28.06H206.733V29.46H208.933V36.84C208.933 37.76 209.353 38.26 210.293 38.2L214.053 38V36.6L210.553 36.82Z" fill="white"/>
<circle cx="279.5" cy="32.5" r="28.5" fill="#007AFF"/>
<path d="M270.5 32H297.5M297.5 32L288.909 24M297.5 32L288.909 40" stroke="white" stroke-width="2" stroke-linecap="round" stroke-linejoin="round"/>
<circle cx="267.5" cy="32" r="3" stroke="white" stroke-width="2"/>
</svg>
