<svg width="726" height="174" viewBox="0 0 726 174" fill="none" xmlns="http://www.w3.org/2000/svg">
<path d="M68.4 0.299994C29.88 0.299994 7.2 26.76 7.2 65.46C7.2 104.34 29.88 130.8 68.4 130.8C106.74 130.8 129.42 104.34 129.42 65.46C129.42 26.76 106.74 0.299994 68.4 0.299994ZM68.4 25.5C75.42 25.5 81.54 27.12 86.4 30.36L37.98 82.02C36.72 77.16 36 71.76 36 65.46C36 39.36 48.06 25.5 68.4 25.5ZM68.4 105.6C61.38 105.6 55.26 103.98 50.22 100.56L98.64 48.9C99.9 53.76 100.62 59.34 100.62 65.46C100.62 91.74 88.74 105.6 68.4 105.6ZM141.982 80.58C141.982 118.74 168.622 130.8 201.202 130.8C231.622 130.8 255.742 119.64 255.742 94.62C255.742 72.12 240.082 69.42 223.882 67.26V60.06C240.082 57.36 253.942 53.76 253.942 34.68C253.942 11.46 231.622 0.299994 201.202 0.299994C168.622 0.299994 143.782 12.36 143.782 45.12H172.582C172.582 30.54 178.702 25.5 201.202 25.5C219.742 25.5 225.142 29.82 225.142 38.28C225.142 46.56 220.282 51.06 209.482 51.06H191.842V76.26H209.482C220.282 76.26 226.942 80.94 226.942 91.02C226.942 101.28 219.742 105.6 201.202 105.6C178.702 105.6 170.782 100.56 170.782 80.58H141.982Z" fill="url(#paint0_linear_932_6868)"/>
<path d="M207.12 56.52L213.896 96H232.488L237.584 58.76H239.824L244.92 96H263.512L270.288 56.52H261.608L255.336 93.76H253.096L248.224 56.52H229.184L224.312 93.76H222.072L215.8 56.52H207.12ZM272.553 96H300.721V88.16H281.513V80.152H297.921V72.312H281.513V64.36H300.721V56.52H272.553V96ZM304.628 96H319.188C329.492 96 337.724 94.488 337.724 85.528C337.724 77.128 331.34 76.568 325.348 76.344V74.104C329.548 73.768 334.812 73.6 334.812 66.208C334.812 58.424 329.492 56.52 318.516 56.52H304.628V96ZM313.588 71.528V64.36H319.636C323.276 64.36 325.852 64.36 325.852 67.944C325.852 71.528 323.276 71.528 319.636 71.528H313.588ZM313.588 88.16V79.368H320.308C325.628 79.368 328.764 79.368 328.764 83.792C328.764 88.16 325.628 88.16 320.308 88.16H313.588ZM406.685 96.784L398.957 87.544C402.709 82.896 404.781 76.68 404.781 69.4H395.821C395.821 73.824 394.925 77.632 393.245 80.712L379.637 64.36H397.893V56.52H367.317V60.384L376.277 71.864V74.104C374.485 72.144 372.133 70.632 368.549 70.632C363.565 70.632 357.909 73.824 357.909 81.44C357.909 91.408 365.973 96.56 378.237 96.56C383.893 96.56 388.821 95.272 392.797 92.864L399.629 101.6L406.685 96.784ZM378.237 88.72C370.789 88.72 366.869 86.536 366.869 81.776C366.869 77.968 370.005 76.008 373.925 76.008C378.013 76.008 380.981 77.744 384.397 82.112L387.757 86.424C385.181 87.936 381.989 88.72 378.237 88.72ZM427.406 96H436.366V64.36L434.686 58.76H436.926L443.254 96H460.614L466.942 58.76H469.182L467.502 64.36V96H476.462V56.52H458.822L453.054 93.76H450.814L445.046 56.52H427.406V96ZM479.812 76.232C479.812 87.768 487.428 96.56 499.972 96.56C512.46 96.56 520.076 87.768 520.076 76.232C520.076 64.752 512.46 55.96 499.972 55.96C487.428 55.96 479.812 64.752 479.812 76.232ZM488.772 76.232C488.772 68.672 492.524 63.8 499.972 63.8C507.42 63.8 511.116 68.672 511.116 76.232C511.116 83.848 507.42 88.72 499.972 88.72C492.524 88.72 488.772 83.848 488.772 76.232ZM524.041 96H538.601C548.905 96 557.137 94.488 557.137 85.528C557.137 77.128 550.753 76.568 544.761 76.344V74.104C548.961 73.768 554.225 73.6 554.225 66.208C554.225 58.424 548.905 56.52 537.929 56.52H524.041V96ZM533.001 71.528V64.36H539.049C542.689 64.36 545.265 64.36 545.265 67.944C545.265 71.528 542.689 71.528 539.049 71.528H533.001ZM533.001 88.16V79.368H539.721C545.041 79.368 548.177 79.368 548.177 83.792C548.177 88.16 545.041 88.16 539.721 88.16H533.001ZM586.264 64.36V56.52H559.384V64.36H568.344V88.16H559.384V96H586.264V88.16H577.304V64.36H586.264ZM595.031 96.56L618.383 96V88.16L599.175 88.72V56.52H590.215V91.856C590.215 94.936 591.951 96.616 595.031 96.56ZM621.743 96H649.911V88.16H630.703V80.152H647.111V72.312H630.703V64.36H649.911V56.52H621.743V96ZM223.92 126.52H209.36V166H223.92C234.448 166 245.424 163.256 245.424 146.232C245.424 129.264 234.448 126.52 223.92 126.52ZM223.92 158.16H218.32V134.36H223.92C230.92 134.36 236.464 134.92 236.464 146.232C236.464 157.6 230.92 158.16 223.92 158.16ZM249.365 166H277.533V158.16H258.325V150.152H274.733V142.312H258.325V134.36H277.533V126.52H249.365V166ZM279.747 126.52L291.115 166H309.595L321.019 126.52H311.947L301.475 163.76H299.235L288.819 126.52H279.747ZM323.305 166H351.473V158.16H332.265V150.152H348.673V142.312H332.265V134.36H351.473V126.52H323.305V166ZM360.196 166.56L383.548 166V158.16L364.34 158.72V126.52H355.38V161.856C355.38 164.936 357.116 166.616 360.196 166.56ZM381.864 146.232C381.864 157.768 389.48 166.56 402.024 166.56C414.512 166.56 422.128 157.768 422.128 146.232C422.128 134.752 414.512 125.96 402.024 125.96C389.48 125.96 381.864 134.752 381.864 146.232ZM390.824 146.232C390.824 138.672 394.576 133.8 402.024 133.8C409.472 133.8 413.168 138.672 413.168 146.232C413.168 153.848 409.472 158.72 402.024 158.72C394.576 158.72 390.824 153.848 390.824 146.232ZM440.261 126.52H426.093V166H435.053V154.24H440.261C450.229 154.24 457.845 152.336 457.845 140.352C457.845 128.424 450.229 126.52 440.261 126.52ZM440.821 146.4H435.053V134.36H440.821C446.141 134.36 448.885 134.92 448.885 140.352C448.885 145.84 446.141 146.4 440.821 146.4ZM461.231 166H470.191V134.36L468.511 128.76H470.751L477.079 166H494.439L500.767 128.76H503.007L501.327 134.36V166H510.287V126.52H492.647L486.879 163.76H484.639L478.871 126.52H461.231V166ZM514.798 166H542.966V158.16H523.758V150.152H540.166V142.312H523.758V134.36H542.966V126.52H514.798V166ZM546.874 166H555.834V134.36L554.154 128.76H556.394L568.322 166H585.962V126.52H577.002V158.16L578.682 163.76H576.442L564.514 126.52H546.874V166ZM623.584 126.52H588.808V134.36H601.744V166H610.704V134.36H623.584V126.52Z" fill="black"/>
<path d="M634.149 166.56C637.845 166.56 640.365 163.872 640.365 160.344C640.365 156.928 637.845 154.24 634.149 154.24C630.341 154.24 628.045 156.928 628.045 160.344C628.045 163.872 630.341 166.56 634.149 166.56Z" fill="#5AFF15"/>
<defs>
<linearGradient id="paint0_linear_932_6868" x1="51.5" y1="20" x2="213.994" y2="111.193" gradientUnits="userSpaceOnUse">
<stop stop-color="#007AFF"/>
<stop offset="1" stop-color="#007AFF" stop-opacity="0"/>
</linearGradient>
</defs>
</svg>
