<svg width="726" height="174" viewBox="0 0 726 174" fill="none" xmlns="http://www.w3.org/2000/svg">
<path d="M208.24 81.328C208.24 91.184 214.344 96.56 226.048 96.56C237.752 96.56 243.912 91.184 243.912 81.328V56.52H234.952V77.352C234.952 84.408 234.28 88.72 226.048 88.72C217.816 88.72 217.2 84.408 217.2 77.352V56.52H208.24V81.328ZM274.727 64.36V56.52H247.847V64.36H256.807V88.16H247.847V96H274.727V88.16H265.767V64.36H274.727ZM299.259 50.416L280.331 99.64L286.659 102.104L305.587 52.88L299.259 50.416ZM310.615 81.328C310.615 91.184 316.719 96.56 328.423 96.56C340.127 96.56 346.287 91.184 346.287 81.328V56.52H337.327V77.352C337.327 84.408 336.655 88.72 328.423 88.72C320.191 88.72 319.575 84.408 319.575 77.352V56.52H310.615V81.328ZM346.847 96H357.151L367.791 80.824L378.487 96H388.791L375.407 77.352V75.112L388.791 56.52H378.487L367.791 71.64L357.151 56.52H346.847L360.175 75.112V77.352L346.847 96ZM223.92 129.52H209.36V169H223.92C234.448 169 245.424 166.256 245.424 149.232C245.424 132.264 234.448 129.52 223.92 129.52ZM223.92 161.16H218.32V137.36H223.92C230.92 137.36 236.464 137.92 236.464 149.232C236.464 160.6 230.92 161.16 223.92 161.16ZM250.485 169H278.653V161.16H259.445V153.152H275.853V145.312H259.445V137.36H278.653V129.52H250.485V169ZM317.909 158.136C317.909 149.904 306.765 146.768 299.485 144.304C293.157 142.176 292.205 141.504 292.205 139.712C292.205 137.696 294.725 136.8 298.757 136.8C303.629 136.8 307.325 138.144 307.325 142.96H316.285C316.285 135.12 310.853 128.96 298.757 128.96C288.565 128.96 283.245 132.656 283.245 139.376C283.245 147.104 290.021 149.344 298.365 152.144C304.133 154.104 308.949 155.392 308.949 158.248C308.949 160.376 307.045 161.72 301.277 161.72C293.437 161.72 290.413 159.816 290.413 153.768H281.453C281.453 163.736 286.773 169.56 300.997 169.56C313.149 169.56 317.909 164.912 317.909 158.136ZM347.571 137.36V129.52H320.691V137.36H329.651V161.16H320.691V169H347.571V161.16H338.611V137.36H347.571ZM349.238 149.232C349.238 161.328 355.734 169.56 367.55 169.56C378.414 169.56 383.286 161.608 383.342 149.232H385.582L383.902 155.392V169H392.862V151.752C392.862 148.672 391.182 146.992 388.102 146.992H367.494V153.712H376.622C376.622 159.032 373.262 161.72 367.886 161.72C361.39 161.72 358.198 157.968 358.198 149.232C358.198 140.552 362.23 136.8 369.118 136.8C375.054 136.8 378.022 138.984 378.918 143.632H387.878C386.702 135.008 379.03 128.96 369.118 128.96C357.694 128.96 349.238 137.192 349.238 149.232ZM397.321 169H406.281V137.36L404.601 131.76H406.841L418.769 169H436.409V129.52H427.449V161.16L429.129 166.76H426.889L414.961 129.52H397.321V169ZM468.375 137.36V129.52H441.495V137.36H450.455V161.16H441.495V169H468.375V161.16H459.415V137.36H468.375ZM473.446 169H482.406V137.36L480.726 131.76H482.966L494.894 169H512.534V129.52H503.574V161.16L505.254 166.76H503.014L491.086 129.52H473.446V169ZM517.019 149.232C517.019 161.328 523.515 169.56 535.331 169.56C546.195 169.56 551.067 161.608 551.123 149.232H553.363L551.683 155.392V169H560.643V151.752C560.643 148.672 558.963 146.992 555.883 146.992H535.275V153.712H544.403C544.403 159.032 541.043 161.72 535.667 161.72C529.171 161.72 525.979 157.968 525.979 149.232C525.979 140.552 530.011 136.8 536.899 136.8C542.835 136.8 545.803 138.984 546.699 143.632H555.659C554.483 135.008 546.811 128.96 536.899 128.96C525.475 128.96 517.019 137.192 517.019 149.232Z" fill="black"/>
<path d="M574.008 169.56C577.704 169.56 580.224 166.872 580.224 163.344C580.224 159.928 577.704 157.24 574.008 157.24C570.2 157.24 567.904 159.928 567.904 163.344C567.904 166.872 570.2 169.56 574.008 169.56Z" fill="#5AFF15"/>
<path d="M68.4 0.299994C29.88 0.299994 7.2 26.76 7.2 65.46C7.2 104.34 29.88 130.8 68.4 130.8C106.74 130.8 129.42 104.34 129.42 65.46C129.42 26.76 106.74 0.299994 68.4 0.299994ZM68.4 25.5C75.42 25.5 81.54 27.12 86.4 30.36L37.98 82.02C36.72 77.16 36 71.76 36 65.46C36 39.36 48.06 25.5 68.4 25.5ZM68.4 105.6C61.38 105.6 55.26 103.98 50.22 100.56L98.64 48.9C99.9 53.76 100.62 59.34 100.62 65.46C100.62 91.74 88.74 105.6 68.4 105.6ZM140.224 52.5L150.304 78.6C189.364 66.54 195.664 42.06 197.824 9.3H205.024L199.624 25.5V129H228.424V2.09999H172.444C172.444 31.08 163.624 43.32 140.224 52.5Z" fill="url(#paint0_linear_688_5039)"/>
<defs>
<linearGradient id="paint0_linear_688_5039" x1="67" y1="20" x2="233.245" y2="125.594" gradientUnits="userSpaceOnUse">
<stop stop-color="#007AFF"/>
<stop offset="1" stop-color="#007AFF" stop-opacity="0"/>
</linearGradient>
</defs>
</svg>
