<svg width="249" height="131" viewBox="0 0 249 131" fill="none" xmlns="http://www.w3.org/2000/svg">
<path d="M61.4002 0.300049C22.8802 0.300049 0.200195 26.7601 0.200195 65.4601C0.200195 104.34 22.8802 130.8 61.4002 130.8C99.7402 130.8 122.42 104.34 122.42 65.4601C122.42 26.7601 99.7402 0.300049 61.4002 0.300049ZM61.4002 25.5C68.4202 25.5 74.5402 27.12 79.4002 30.36L30.9802 82.0201C29.7202 77.1601 29.0002 71.7601 29.0002 65.4601C29.0002 39.3601 41.0602 25.5 61.4002 25.5ZM61.4002 105.6C54.3802 105.6 48.2602 103.98 43.2202 100.56L91.6402 48.9001C92.9002 53.7601 93.6202 59.3401 93.6202 65.4601C93.6202 91.7401 81.7402 105.6 61.4002 105.6Z" fill="url(#paint0_linear_502_4799)"/>
<path d="M134.982 80.58C134.982 118.74 161.622 130.8 194.202 130.8C224.622 130.8 248.742 119.64 248.742 94.62C248.742 72.12 233.082 69.42 216.882 67.26V60.0601C233.082 57.36 246.942 53.7601 246.942 34.68C246.942 11.46 224.622 0.300049 194.202 0.300049C161.622 0.300049 136.782 12.3601 136.782 45.1201H165.582C165.582 30.54 171.702 25.5 194.202 25.5C212.742 25.5 218.142 29.8201 218.142 38.2801C218.142 46.56 213.282 51.0601 202.482 51.0601H184.842V76.2601H202.482C213.282 76.2601 219.942 80.94 219.942 91.0201C219.942 101.28 212.742 105.6 194.202 105.6C171.702 105.6 163.782 100.56 163.782 80.58H134.982Z" fill="url(#paint1_linear_502_4799)"/>
<defs>
<linearGradient id="paint0_linear_502_4799" x1="44.5002" y1="20" x2="206.994" y2="111.193" gradientUnits="userSpaceOnUse">
<stop stop-color="#007AFF"/>
<stop offset="1" stop-color="#007AFF" stop-opacity="0"/>
</linearGradient>
<linearGradient id="paint1_linear_502_4799" x1="44.5002" y1="20" x2="206.994" y2="111.193" gradientUnits="userSpaceOnUse">
<stop stop-color="#007AFF"/>
<stop offset="1" stop-color="#007AFF" stop-opacity="0"/>
</linearGradient>
</defs>
</svg>
