<svg width="726" height="248" viewBox="0 0 726 248" fill="none" xmlns="http://www.w3.org/2000/svg">
<path d="M68.4 4.29999C29.88 4.29999 7.2 30.76 7.2 69.46C7.2 108.34 29.88 134.8 68.4 134.8C106.74 134.8 129.42 108.34 129.42 69.46C129.42 30.76 106.74 4.29999 68.4 4.29999ZM68.4 29.5C75.42 29.5 81.54 31.12 86.4 34.36L37.98 86.02C36.72 81.16 36 75.76 36 69.46C36 43.36 48.06 29.5 68.4 29.5ZM68.4 109.6C61.38 109.6 55.26 107.98 50.22 104.56L98.64 52.9C99.9 57.76 100.62 63.34 100.62 69.46C100.62 95.74 88.74 109.6 68.4 109.6ZM145.582 70.54C145.582 114.46 168.622 134.8 203.542 134.8C239.542 134.8 261.322 115 261.322 86.74C261.322 57.76 242.602 40.3 211.102 40.3C187.342 40.3 168.082 52.9 165.922 74.14H158.722L165.922 57.94C171.322 34.18 185.362 27.52 208.402 29.5L251.062 33.1V7.89999L208.402 4.29999C163.042 0.519989 145.582 30.94 145.582 70.54ZM174.382 88.54C174.382 73.6 183.202 65.5 204.262 65.5C223.702 65.5 232.522 71.98 232.522 86.74C232.522 103.66 223.342 109.6 203.542 109.6C183.382 109.6 174.382 99.52 174.382 88.54Z" fill="url(#paint0_linear_932_7019)"/>
<path d="M244.136 89.136C244.136 80.904 232.992 77.768 225.712 75.304C219.384 73.176 218.432 72.504 218.432 70.712C218.432 68.696 220.952 67.8 224.984 67.8C229.856 67.8 233.552 69.144 233.552 73.96H242.512C242.512 66.12 237.08 59.96 224.984 59.96C214.792 59.96 209.472 63.656 209.472 70.376C209.472 78.104 216.248 80.344 224.592 83.144C230.36 85.104 235.176 86.392 235.176 89.248C235.176 91.376 233.272 92.72 227.504 92.72C219.664 92.72 216.64 90.816 216.64 84.768H207.68C207.68 94.736 213 100.56 227.224 100.56C239.376 100.56 244.136 95.912 244.136 89.136ZM246.917 80.232C246.917 91.768 254.533 100.56 267.077 100.56C279.565 100.56 287.181 91.768 287.181 80.232C287.181 68.752 279.565 59.96 267.077 59.96C254.533 59.96 246.917 68.752 246.917 80.232ZM255.877 80.232C255.877 72.672 259.629 67.8 267.077 67.8C274.525 67.8 278.221 72.672 278.221 80.232C278.221 87.848 274.525 92.72 267.077 92.72C259.629 92.72 255.877 87.848 255.877 80.232ZM291.105 80.232C291.105 91.768 298.833 100.56 311.377 100.56C322.409 100.56 329.689 94.512 330.865 84.712H321.905C321.009 89.92 316.865 92.72 311.489 92.72C304.601 92.72 300.065 88.408 300.065 80.232C300.065 72.112 304.601 67.8 311.489 67.8C316.865 67.8 321.009 70.544 321.905 75.752H330.865C329.689 66.008 322.409 59.96 311.377 59.96C298.833 59.96 291.105 68.752 291.105 80.232ZM359.985 68.36V60.52H333.105V68.36H342.065V92.16H333.105V100H359.985V92.16H351.025V68.36H359.985ZM396.109 100H405.181L393.757 60.52H375.277L363.909 100H372.981L376.509 87.344H392.525L396.109 100ZM378.693 79.504L383.397 62.76H385.637L390.341 79.504H378.693ZM413.949 100.56L437.301 100V92.16L418.093 92.72V60.52H409.133V95.856C409.133 98.936 410.869 100.616 413.949 100.56ZM457.477 100H466.437V68.36L464.757 62.76H466.997L473.325 100H490.685L497.013 62.76H499.253L497.573 68.36V100H506.533V60.52H488.893L483.125 97.76H480.885L475.117 60.52H457.477V100ZM512.165 100H540.333V92.16H521.125V84.152H537.533V76.312H521.125V68.36H540.333V60.52H512.165V100ZM559.92 60.52H545.36V100H559.92C570.448 100 581.424 97.256 581.424 80.232C581.424 63.264 570.448 60.52 559.92 60.52ZM559.92 92.16H554.32V68.36H559.92C566.92 68.36 572.464 68.92 572.464 80.232C572.464 91.6 566.92 92.16 559.92 92.16ZM610.563 68.36V60.52H583.683V68.36H592.643V92.16H583.683V100H610.563V92.16H601.603V68.36H610.563ZM646.687 100H655.759L644.335 60.52H625.855L614.487 100H623.559L627.087 87.344H643.103L646.687 100ZM629.271 79.504L633.975 62.76H636.215L640.919 79.504H629.271ZM209.36 173H218.32V141.36L216.64 135.76H218.88L225.208 173H242.568L248.896 135.76H251.136L249.456 141.36V173H258.416V133.52H240.776L235.008 170.76H232.768L227 133.52H209.36V173ZM294.554 173H303.626L292.202 133.52H273.722L262.354 173H271.426L274.954 160.344H290.97L294.554 173ZM277.138 152.504L281.842 135.76H284.082L288.786 152.504H277.138ZM307.579 173H316.539V141.36L314.859 135.76H317.099L329.027 173H346.667V133.52H337.707V165.16L339.387 170.76H337.147L325.219 133.52H307.579V173ZM382.82 173H391.892L380.468 133.52H361.988L350.62 173H359.692L363.22 160.344H379.236L382.82 173ZM365.404 152.504L370.108 135.76H372.348L377.052 152.504H365.404ZM392.495 153.232C392.495 165.328 398.991 173.56 410.807 173.56C421.671 173.56 426.543 165.608 426.599 153.232H428.839L427.159 159.392V173H436.119V155.752C436.119 152.672 434.439 150.992 431.359 150.992H410.751V157.712H419.879C419.879 163.032 416.519 165.72 411.143 165.72C404.647 165.72 401.455 161.968 401.455 153.232C401.455 144.552 405.487 140.8 412.375 140.8C418.311 140.8 421.279 142.984 422.175 147.632H431.135C429.959 139.008 422.287 132.96 412.375 132.96C400.951 132.96 392.495 141.192 392.495 153.232ZM467.446 141.36V133.52H440.566V141.36H449.526V165.16H440.566V173H467.446V165.16H458.486V141.36H467.446ZM472.516 173H481.476V141.36L479.796 135.76H482.036L493.964 173H511.604V133.52H502.644V165.16L504.324 170.76H502.084L490.156 133.52H472.516V173ZM516.089 153.232C516.089 165.328 522.585 173.56 534.401 173.56C545.265 173.56 550.137 165.608 550.193 153.232H552.433L550.753 159.392V173H559.713V155.752C559.713 152.672 558.033 150.992 554.953 150.992H534.345V157.712H543.473C543.473 163.032 540.113 165.72 534.737 165.72C528.241 165.72 525.049 161.968 525.049 153.232C525.049 144.552 529.081 140.8 535.969 140.8C541.905 140.8 544.873 142.984 545.769 147.632H554.729C553.553 139.008 545.881 132.96 535.969 132.96C524.545 132.96 516.089 141.192 516.089 153.232Z" fill="black"/>
<path d="M573.079 173.56C576.775 173.56 579.295 170.872 579.295 167.344C579.295 163.928 576.775 161.24 573.079 161.24C569.271 161.24 566.975 163.928 566.975 167.344C566.975 170.872 569.271 173.56 573.079 173.56Z" fill="#5AFF15"/>
<defs>
<linearGradient id="paint0_linear_932_7019" x1="54" y1="24" x2="238.605" y2="120.77" gradientUnits="userSpaceOnUse">
<stop stop-color="#007AFF"/>
<stop offset="1" stop-color="#007AFF" stop-opacity="0"/>
</linearGradient>
</defs>
</svg>
