<svg width="222" height="131" viewBox="0 0 222 131" fill="none" xmlns="http://www.w3.org/2000/svg">
<path d="M61.4 0.299994C22.88 0.299994 0.200001 26.76 0.200001 65.46C0.200001 104.34 22.88 130.8 61.4 130.8C99.74 130.8 122.42 104.34 122.42 65.46C122.42 26.76 99.74 0.299994 61.4 0.299994ZM61.4 25.5C68.42 25.5 74.54 27.12 79.4 30.36L30.98 82.02C29.72 77.16 29 71.76 29 65.46C29 39.36 41.06 25.5 61.4 25.5ZM61.4 105.6C54.38 105.6 48.26 103.98 43.22 100.56L91.64 48.9C92.9 53.76 93.62 59.34 93.62 65.46C93.62 91.74 81.74 105.6 61.4 105.6ZM133.224 52.5L143.304 78.6C182.364 66.54 188.664 42.06 190.824 9.3H198.024L192.624 25.5V129H221.424V2.09999H165.444C165.444 31.08 156.624 43.32 133.224 52.5Z" fill="url(#paint0_linear_673_5184)"/>
<defs>
<linearGradient id="paint0_linear_673_5184" x1="60" y1="20" x2="226.245" y2="125.594" gradientUnits="userSpaceOnUse">
<stop stop-color="#007AFF"/>
<stop offset="1" stop-color="#007AFF" stop-opacity="0"/>
</linearGradient>
</defs>
</svg>
