<svg width="248" height="131" viewBox="0 0 248 131" fill="none" xmlns="http://www.w3.org/2000/svg">
<path d="M61.4002 0.299805C22.8802 0.299805 0.200195 26.7598 0.200195 65.4598C0.200195 104.34 22.8802 130.8 61.4002 130.8C99.7402 130.8 122.42 104.34 122.42 65.4598C122.42 26.7598 99.7402 0.299805 61.4002 0.299805ZM61.4002 25.4998C68.4202 25.4998 74.5402 27.1198 79.4002 30.3598L30.9802 82.0198C29.7202 77.1598 29.0002 71.7598 29.0002 65.4598C29.0002 39.3598 41.0602 25.4998 61.4002 25.4998ZM61.4002 105.6C54.3802 105.6 48.2602 103.98 43.2202 100.56L91.6402 48.8998C92.9002 53.7598 93.6202 59.3398 93.6202 65.4598C93.6202 91.7398 81.7402 105.6 61.4002 105.6Z" fill="url(#paint0_linear_502_4805)"/>
<path d="M247.482 82.3798H233.622V54.2998H204.822V82.3798H163.782L145.782 87.7798V80.5798C190.782 71.2198 216.342 44.0398 218.322 2.0998H189.522C187.362 32.1598 168.822 50.5198 138.582 55.1998V107.58H204.822V129H233.622V107.58H247.482V82.3798Z" fill="url(#paint1_linear_502_4805)"/>
<defs>
<linearGradient id="paint0_linear_502_4805" x1="47.0002" y1="20" x2="231.605" y2="116.77" gradientUnits="userSpaceOnUse">
<stop stop-color="#007AFF"/>
<stop offset="1" stop-color="#007AFF" stop-opacity="0"/>
</linearGradient>
<linearGradient id="paint1_linear_502_4805" x1="47.0002" y1="20" x2="231.605" y2="116.77" gradientUnits="userSpaceOnUse">
<stop stop-color="#007AFF"/>
<stop offset="1" stop-color="#007AFF" stop-opacity="0"/>
</linearGradient>
</defs>
</svg>
