<svg width="248" height="131" viewBox="0 0 248 131" fill="none" xmlns="http://www.w3.org/2000/svg">
<path d="M61.4002 0.300049C22.8802 0.300049 0.200195 26.7601 0.200195 65.4601C0.200195 104.34 22.8802 130.8 61.4002 130.8C99.7402 130.8 122.42 104.34 122.42 65.4601C122.42 26.7601 99.7402 0.300049 61.4002 0.300049ZM61.4002 25.5C68.4202 25.5 74.5402 27.12 79.4002 30.36L30.9802 82.0201C29.7202 77.1601 29.0002 71.7601 29.0002 65.4601C29.0002 39.3601 41.0602 25.5 61.4002 25.5ZM61.4002 105.6C54.3802 105.6 48.2602 103.98 43.2202 100.56L91.6402 48.9001C92.9002 53.7601 93.6202 59.3401 93.6202 65.4601C93.6202 91.7401 81.7402 105.6 61.4002 105.6Z" fill="url(#paint0_linear_502_4793)"/>
<path d="M136.782 60.2401H165.582C165.582 35.9401 175.302 25.5 197.082 25.5C213.462 25.5 218.862 33.6 218.862 41.7001C218.862 69.78 151.542 76.8 138.582 78.6001V129H247.662V103.8H163.782L145.782 109.2V102C205.182 91.0201 247.662 85.6201 247.662 42.9601C247.662 15.24 226.782 0.300049 196.722 0.300049C163.422 0.300049 136.782 17.5801 136.782 60.2401Z" fill="url(#paint1_linear_502_4793)"/>
<defs>
<linearGradient id="paint0_linear_502_4793" x1="67.0002" y1="20" x2="226.529" y2="111.518" gradientUnits="userSpaceOnUse">
<stop stop-color="#007AFF"/>
<stop offset="1" stop-color="#007AFF" stop-opacity="0"/>
</linearGradient>
<linearGradient id="paint1_linear_502_4793" x1="67.0002" y1="20" x2="226.529" y2="111.518" gradientUnits="userSpaceOnUse">
<stop stop-color="#007AFF"/>
<stop offset="1" stop-color="#007AFF" stop-opacity="0"/>
</linearGradient>
</defs>
</svg>
