<svg width="726" height="174" viewBox="0 0 726 174" fill="none" xmlns="http://www.w3.org/2000/svg">
<path d="M208.8 76.232C208.8 87.768 216.528 96.56 229.072 96.56C240.104 96.56 247.384 90.512 248.56 80.712H239.6C238.704 85.92 234.56 88.72 229.184 88.72C222.296 88.72 217.76 84.408 217.76 76.232C217.76 68.112 222.296 63.8 229.184 63.8C234.56 63.8 238.704 66.544 239.6 71.752H248.56C247.384 62.008 240.104 55.96 229.072 55.96C216.528 55.96 208.8 64.752 208.8 76.232ZM252.441 76.232C252.441 87.768 260.057 96.56 272.601 96.56C285.089 96.56 292.705 87.768 292.705 76.232C292.705 64.752 285.089 55.96 272.601 55.96C260.057 55.96 252.441 64.752 252.441 76.232ZM261.401 76.232C261.401 68.672 265.153 63.8 272.601 63.8C280.049 63.8 283.745 68.672 283.745 76.232C283.745 83.848 280.049 88.72 272.601 88.72C265.153 88.72 261.401 83.848 261.401 76.232ZM297.79 96H306.75V64.36L305.07 58.76H307.31L319.238 96H336.878V56.52H327.918V88.16L329.598 93.76H327.358L315.43 56.52H297.79V96ZM375.62 56.52H340.844V64.36H353.78V96H362.74V64.36H375.62V56.52ZM379.548 96H407.716V88.16H388.508V80.152H404.916V72.312H388.508V64.36H407.716V56.52H379.548V96ZM412.743 96H421.703V64.36L420.023 58.76H422.263L434.191 96H451.831V56.52H442.871V88.16L444.551 93.76H442.311L430.383 56.52H412.743V96ZM490.573 56.52H455.797V64.36H468.733V96H477.693V64.36H490.573V56.52ZM207.12 129.52L213.896 169H232.488L237.584 131.76H239.824L244.92 169H263.512L270.288 129.52H261.608L255.336 166.76H253.096L248.224 129.52H229.184L224.312 166.76H222.072L215.8 129.52H207.12ZM273.673 169H282.633V155.112H298.089V169H307.049V156.4C307.049 153.32 305.369 151.64 302.289 151.64H296.521V149.4C301.281 148.84 306.545 147.048 306.545 140.552C306.545 131.704 298.369 129.52 288.961 129.52H273.673V169ZM282.633 147.272V137.36H288.961C294.281 137.36 297.585 137.36 297.585 142.344C297.585 147.272 294.281 147.272 288.961 147.272H282.633ZM338.985 137.36V129.52H312.105V137.36H321.065V161.16H312.105V169H338.985V161.16H330.025V137.36H338.985ZM378.245 129.52H343.469V137.36H356.405V169H365.365V137.36H378.245V129.52ZM382.173 169H410.341V161.16H391.133V153.152H407.541V145.312H391.133V137.36H410.341V129.52H382.173V169ZM415.368 169H424.328V155.112H439.784V169H448.744V156.4C448.744 153.32 447.064 151.64 443.984 151.64H438.216V149.4C442.976 148.84 448.24 147.048 448.24 140.552C448.24 131.704 440.064 129.52 430.656 129.52H415.368V169ZM424.328 147.272V137.36H430.656C435.976 137.36 439.28 137.36 439.28 142.344C439.28 147.272 435.976 147.272 430.656 147.272H424.328Z" fill="black"/>
<path d="M462.118 169.56C465.814 169.56 468.334 166.872 468.334 163.344C468.334 159.928 465.814 157.24 462.118 157.24C458.31 157.24 456.014 159.928 456.014 163.344C456.014 166.872 458.31 169.56 462.118 169.56Z" fill="#5AFF15"/>
<path d="M68.4 0.299994C29.88 0.299994 7.2 26.76 7.2 65.46C7.2 104.34 29.88 130.8 68.4 130.8C106.74 130.8 129.42 104.34 129.42 65.46C129.42 26.76 106.74 0.299994 68.4 0.299994ZM68.4 25.5C75.42 25.5 81.54 27.12 86.4 30.36L37.98 82.02C36.72 77.16 36 71.76 36 65.46C36 39.36 48.06 25.5 68.4 25.5ZM68.4 105.6C61.38 105.6 55.26 103.98 50.22 100.56L98.64 48.9C99.9 53.76 100.62 59.34 100.62 65.46C100.62 91.74 88.74 105.6 68.4 105.6ZM254.482 82.38H240.622V54.3H211.822V82.38H170.782L152.782 87.78V80.58C197.782 71.22 223.342 44.04 225.322 2.09999H196.522C194.362 32.16 175.822 50.52 145.582 55.2V107.58H211.822V129H240.622V107.58H254.482V82.38Z" fill="url(#paint0_linear_919_5543)"/>
<defs>
<linearGradient id="paint0_linear_919_5543" x1="54" y1="20" x2="238.605" y2="116.77" gradientUnits="userSpaceOnUse">
<stop stop-color="#007AFF"/>
<stop offset="1" stop-color="#007AFF" stop-opacity="0"/>
</linearGradient>
</defs>
</svg>
