<svg width="806" height="252" viewBox="0 0 806 252" fill="none" xmlns="http://www.w3.org/2000/svg">
<path d="M68.4 0.299994C29.88 0.299994 7.2 26.76 7.2 65.46C7.2 104.34 29.88 130.8 68.4 130.8C106.74 130.8 129.42 104.34 129.42 65.46C129.42 26.76 106.74 0.299994 68.4 0.299994ZM68.4 25.5C75.42 25.5 81.54 27.12 86.4 30.36L37.98 82.02C36.72 77.16 36 71.76 36 65.46C36 39.36 48.06 25.5 68.4 25.5ZM68.4 105.6C61.38 105.6 55.26 103.98 50.22 100.56L98.64 48.9C99.9 53.76 100.62 59.34 100.62 65.46C100.62 91.74 88.74 105.6 68.4 105.6ZM140.266 82.38C140.266 116.94 166.546 130.8 200.026 130.8C233.506 130.8 255.826 116.04 255.826 81.12C255.826 51.96 237.826 36.3 215.506 36.3C197.686 36.3 184.366 45.3 177.526 65.1L171.586 61.68L176.986 45.48V27.3H245.746V2.09999H148.186V56.28L180.586 75C187.786 65.82 196.246 61.5 206.866 61.5C220.366 61.5 227.026 68.34 227.026 81.84C227.026 97.68 220.366 105.6 200.026 105.6C177.526 105.6 169.066 97.68 169.066 82.38H140.266Z" fill="url(#paint0_linear_846_5430)"/>
<path d="M223.92 56.52H209.36V96H223.92C234.448 96 245.424 93.256 245.424 76.232C245.424 59.264 234.448 56.52 223.92 56.52ZM223.92 88.16H218.32V64.36H223.92C230.92 64.36 236.464 64.92 236.464 76.232C236.464 87.6 230.92 88.16 223.92 88.16ZM273.443 64.36V56.52H246.563V64.36H255.523V88.16H246.563V96H273.443V88.16H264.483V64.36H273.443ZM273.99 76.232C273.99 88.328 280.486 96.56 292.302 96.56C303.166 96.56 308.038 88.608 308.094 76.232H310.334L308.654 82.392V96H317.614V78.752C317.614 75.672 315.934 73.992 312.854 73.992H292.246V80.712H301.374C301.374 86.032 298.014 88.72 292.638 88.72C286.142 88.72 282.95 84.968 282.95 76.232C282.95 67.552 286.982 63.8 293.87 63.8C299.806 63.8 302.774 65.984 303.67 70.632H312.63C311.454 62.008 303.782 55.96 293.87 55.96C282.446 55.96 273.99 64.192 273.99 76.232ZM347.82 64.36V56.52H320.94V64.36H329.9V88.16H320.94V96H347.82V88.16H338.86V64.36H347.82ZM385.96 56.52H351.184V64.36H364.12V96H373.08V64.36H385.96V56.52ZM413.095 96H422.167L410.743 56.52H392.263L380.895 96H389.967L393.495 83.344H409.511L413.095 96ZM395.679 75.504L400.383 58.76H402.623L407.327 75.504H395.679ZM429.815 96.56L453.167 96V88.16L433.959 88.72V56.52H424.999V91.856C424.999 94.936 426.735 96.616 429.815 96.56ZM209.36 169H218.32V137.36L216.64 131.76H218.88L225.208 169H242.568L248.896 131.76H251.136L249.456 137.36V169H258.416V129.52H240.776L235.008 166.76H232.768L227 129.52H209.36V169ZM293.434 169H302.506L291.082 129.52H272.602L261.234 169H270.306L273.834 156.344H289.85L293.434 169ZM276.018 148.504L280.722 131.76H282.962L287.666 148.504H276.018ZM305.339 169H314.299V155.112H329.755V169H338.715V156.4C338.715 153.32 337.035 151.64 333.955 151.64H328.187V149.4C332.947 148.84 338.211 147.048 338.211 140.552C338.211 131.704 330.035 129.52 320.627 129.52H305.339V169ZM314.299 147.272V137.36H320.627C325.947 137.36 329.251 137.36 329.251 142.344C329.251 147.272 325.947 147.272 320.627 147.272H314.299ZM381.795 129.52H368.691L352.171 143.52V129.52H343.211V169H352.171V155.056L368.691 169H381.795L357.995 149.288L381.795 129.52ZM384.036 169H412.204V161.16H392.996V153.152H409.404V145.312H392.996V137.36H412.204V129.52H384.036V169ZM449.754 129.52H414.978V137.36H427.914V169H436.874V137.36H449.754V129.52ZM479.976 137.36V129.52H453.096V137.36H462.056V161.16H453.096V169H479.976V161.16H471.016V137.36H479.976ZM483.926 169H492.886V137.36L491.206 131.76H493.446L505.374 169H523.014V129.52H514.054V161.16L515.734 166.76H513.494L501.566 129.52H483.926V169ZM526.379 149.232C526.379 161.328 532.875 169.56 544.691 169.56C555.555 169.56 560.427 161.608 560.483 149.232H562.723L561.043 155.392V169H570.003V151.752C570.003 148.672 568.323 146.992 565.243 146.992H544.635V153.712H553.763C553.763 159.032 550.403 161.72 545.027 161.72C538.531 161.72 535.339 157.968 535.339 149.232C535.339 140.552 539.371 136.8 546.259 136.8C552.195 136.8 555.163 138.984 556.059 143.632H565.019C563.843 135.008 556.171 128.96 546.259 128.96C534.835 128.96 526.379 137.192 526.379 149.232ZM258.696 242.784L250.968 233.544C254.72 228.896 256.792 222.68 256.792 215.4H247.832C247.832 219.824 246.936 223.632 245.256 226.712L231.648 210.36H249.904V202.52H219.328V206.384L228.288 217.864V220.104C226.496 218.144 224.144 216.632 220.56 216.632C215.576 216.632 209.92 219.824 209.92 227.44C209.92 237.408 217.984 242.56 230.248 242.56C235.904 242.56 240.832 241.272 244.808 238.864L251.64 247.6L258.696 242.784ZM230.248 234.72C222.8 234.72 218.88 232.536 218.88 227.776C218.88 223.968 222.016 222.008 225.936 222.008C230.024 222.008 232.992 223.744 236.408 228.112L239.768 232.424C237.192 233.936 234 234.72 230.248 234.72ZM314.193 231.136C314.193 222.904 303.049 219.768 295.769 217.304C289.441 215.176 288.489 214.504 288.489 212.712C288.489 210.696 291.009 209.8 295.041 209.8C299.913 209.8 303.609 211.144 303.609 215.96H312.569C312.569 208.12 307.137 201.96 295.041 201.96C284.849 201.96 279.529 205.656 279.529 212.376C279.529 220.104 286.305 222.344 294.649 225.144C300.417 227.104 305.233 228.392 305.233 231.248C305.233 233.376 303.329 234.72 297.561 234.72C289.721 234.72 286.697 232.816 286.697 226.768H277.737C277.737 236.736 283.057 242.56 297.281 242.56C309.433 242.56 314.193 237.912 314.193 231.136ZM317.562 242H345.731V234.16H326.523V226.152H342.931V218.312H326.523V210.36H345.731V202.52H317.562V242ZM346.836 222.232C346.836 233.768 354.452 242.56 366.996 242.56C379.484 242.56 387.1 233.768 387.1 222.232C387.1 210.752 379.484 201.96 366.996 201.96C354.452 201.96 346.836 210.752 346.836 222.232ZM355.796 222.232C355.796 214.672 359.548 209.8 366.996 209.8C374.444 209.8 378.14 214.672 378.14 222.232C378.14 229.848 374.444 234.72 366.996 234.72C359.548 234.72 355.796 229.848 355.796 222.232Z" fill="black"/>
<path d="M398.822 242.56C402.518 242.56 405.038 239.872 405.038 236.344C405.038 232.928 402.518 230.24 398.822 230.24C395.014 230.24 392.718 232.928 392.718 236.344C392.718 239.872 395.014 242.56 398.822 242.56Z" fill="#5AFF15"/>
<defs>
<linearGradient id="paint0_linear_846_5430" x1="71.5" y1="20" x2="237.946" y2="110.76" gradientUnits="userSpaceOnUse">
<stop stop-color="#007AFF"/>
<stop offset="1" stop-color="#007AFF" stop-opacity="0"/>
</linearGradient>
</defs>
</svg>
