<svg width="222" height="131" viewBox="0 0 222 131" fill="none" xmlns="http://www.w3.org/2000/svg">
<path d="M61.4002 0.300049C22.8802 0.300049 0.200195 26.7601 0.200195 65.4601C0.200195 104.34 22.8802 130.8 61.4002 130.8C99.7402 130.8 122.42 104.34 122.42 65.4601C122.42 26.7601 99.7402 0.300049 61.4002 0.300049ZM61.4002 25.5C68.4202 25.5 74.5402 27.12 79.4002 30.36L30.9802 82.0201C29.7202 77.1601 29.0002 71.7601 29.0002 65.4601C29.0002 39.3601 41.0602 25.5 61.4002 25.5ZM61.4002 105.6C54.3802 105.6 48.2602 103.98 43.2202 100.56L91.6402 48.9001C92.9002 53.7601 93.6202 59.3401 93.6202 65.4601C93.6202 91.7401 81.7402 105.6 61.4002 105.6Z" fill="url(#paint0_linear_502_4786)"/>
<path d="M133.224 52.5001L143.304 78.6001C182.364 66.5401 188.664 42.0601 190.824 9.30005H198.024L192.624 25.5V129H221.424V2.10005H165.444C165.444 31.0801 156.624 43.3201 133.224 52.5001Z" fill="url(#paint1_linear_502_4786)"/>
<defs>
<linearGradient id="paint0_linear_502_4786" x1="60.0002" y1="20" x2="226.245" y2="125.594" gradientUnits="userSpaceOnUse">
<stop stop-color="#007AFF"/>
<stop offset="1" stop-color="#007AFF" stop-opacity="0"/>
</linearGradient>
<linearGradient id="paint1_linear_502_4786" x1="60.0002" y1="20" x2="226.245" y2="125.594" gradientUnits="userSpaceOnUse">
<stop stop-color="#007AFF"/>
<stop offset="1" stop-color="#007AFF" stop-opacity="0"/>
</linearGradient>
</defs>
</svg>
