<svg width="806" height="187" viewBox="0 0 806 187" fill="none" xmlns="http://www.w3.org/2000/svg">
<path d="M68.4 4.29999C29.88 4.29999 7.2 30.76 7.2 69.46C7.2 108.34 29.88 134.8 68.4 134.8C106.74 134.8 129.42 108.34 129.42 69.46C129.42 30.76 106.74 4.29999 68.4 4.29999ZM68.4 29.5C75.42 29.5 81.54 31.12 86.4 34.36L37.98 86.02C36.72 81.16 36 75.76 36 69.46C36 43.36 48.06 29.5 68.4 29.5ZM68.4 109.6C61.38 109.6 55.26 107.98 50.22 104.56L98.64 52.9C99.9 57.76 100.62 63.34 100.62 69.46C100.62 95.74 88.74 109.6 68.4 109.6ZM145.582 70.54C145.582 114.46 168.622 134.8 203.542 134.8C239.542 134.8 261.322 115 261.322 86.74C261.322 57.76 242.602 40.3 211.102 40.3C187.342 40.3 168.082 52.9 165.922 74.14H158.722L165.922 57.94C171.322 34.18 185.362 27.52 208.402 29.5L251.062 33.1V7.89999L208.402 4.29999C163.042 0.519989 145.582 30.94 145.582 70.54ZM174.382 88.54C174.382 73.6 183.202 65.5 204.262 65.5C223.702 65.5 232.522 71.98 232.522 86.74C232.522 103.66 223.342 109.6 203.542 109.6C183.382 109.6 174.382 99.52 174.382 88.54Z" fill="url(#paint0_linear_846_5430)"/>
<path d="M244.136 89.136C244.136 80.904 232.992 77.768 225.712 75.304C219.384 73.176 218.432 72.504 218.432 70.712C218.432 68.696 220.952 67.8 224.984 67.8C229.856 67.8 233.552 69.144 233.552 73.96H242.512C242.512 66.12 237.08 59.96 224.984 59.96C214.792 59.96 209.472 63.656 209.472 70.376C209.472 78.104 216.248 80.344 224.592 83.144C230.36 85.104 235.176 86.392 235.176 89.248C235.176 91.376 233.272 92.72 227.504 92.72C219.664 92.72 216.64 90.816 216.64 84.768H207.68C207.68 94.736 213 100.56 227.224 100.56C239.376 100.56 244.136 95.912 244.136 89.136ZM245.797 80.232C245.797 91.768 253.413 100.56 265.957 100.56C278.445 100.56 286.061 91.768 286.061 80.232C286.061 68.752 278.445 59.96 265.957 59.96C253.413 59.96 245.797 68.752 245.797 80.232ZM254.757 80.232C254.757 72.672 258.509 67.8 265.957 67.8C273.405 67.8 277.101 72.672 277.101 80.232C277.101 87.848 273.405 92.72 265.957 92.72C258.509 92.72 254.757 87.848 254.757 80.232ZM288.865 80.232C288.865 91.768 296.593 100.56 309.137 100.56C320.169 100.56 327.449 94.512 328.625 84.712H319.665C318.769 89.92 314.625 92.72 309.249 92.72C302.361 92.72 297.825 88.408 297.825 80.232C297.825 72.112 302.361 67.8 309.249 67.8C314.625 67.8 318.769 70.544 319.665 75.752H328.625C327.449 66.008 320.169 59.96 309.137 59.96C296.593 59.96 288.865 68.752 288.865 80.232ZM356.625 68.36V60.52H329.745V68.36H338.705V92.16H329.745V100H356.625V92.16H347.665V68.36H356.625ZM391.629 100H400.701L389.277 60.52H370.797L359.429 100H368.501L372.029 87.344H388.045L391.629 100ZM374.213 79.504L378.917 62.76H381.157L385.861 79.504H374.213ZM408.349 100.56L431.701 100V92.16L412.493 92.72V60.52H403.533V95.856C403.533 98.936 405.269 100.616 408.349 100.56ZM449.637 100H458.597V68.36L456.917 62.76H459.157L465.485 100H482.845L489.173 62.76H491.413L489.733 68.36V100H498.693V60.52H481.053L475.285 97.76H473.045L467.277 60.52H449.637V100ZM503.205 100H531.373V92.16H512.165V84.152H528.573V76.312H512.165V68.36H531.373V60.52H503.205V100ZM549.84 60.52H535.28V100H549.84C560.368 100 571.344 97.256 571.344 80.232C571.344 63.264 560.368 60.52 549.84 60.52ZM549.84 92.16H544.24V68.36H549.84C556.84 68.36 562.384 68.92 562.384 80.232C562.384 91.6 556.84 92.16 549.84 92.16ZM599.363 68.36V60.52H572.483V68.36H581.443V92.16H572.483V100H599.363V92.16H590.403V68.36H599.363ZM634.367 100H643.439L632.015 60.52H613.535L602.167 100H611.239L614.767 87.344H630.783L634.367 100ZM616.951 79.504L621.655 62.76H623.895L628.599 79.504H616.951ZM209.36 173H218.32V141.36L216.64 135.76H218.88L225.208 173H242.568L248.896 135.76H251.136L249.456 141.36V173H258.416V133.52H240.776L235.008 170.76H232.768L227 133.52H209.36V173ZM293.434 173H302.506L291.082 133.52H272.602L261.234 173H270.306L273.834 160.344H289.85L293.434 173ZM276.018 152.504L280.722 135.76H282.962L287.666 152.504H276.018ZM305.339 173H314.299V141.36L312.619 135.76H314.859L326.787 173H344.427V133.52H335.467V165.16L337.147 170.76H334.907L322.979 133.52H305.339V173ZM379.46 173H388.532L377.108 133.52H358.628L347.26 173H356.332L359.86 160.344H375.876L379.46 173ZM362.044 152.504L366.748 135.76H368.988L373.692 152.504H362.044ZM388.015 153.232C388.015 165.328 394.511 173.56 406.327 173.56C417.191 173.56 422.063 165.608 422.119 153.232H424.359L422.679 159.392V173H431.639V155.752C431.639 152.672 429.959 150.992 426.879 150.992H406.271V157.712H415.399C415.399 163.032 412.039 165.72 406.663 165.72C400.167 165.72 396.975 161.968 396.975 153.232C396.975 144.552 401.007 140.8 407.895 140.8C413.831 140.8 416.799 142.984 417.695 147.632H426.655C425.479 139.008 417.807 132.96 407.895 132.96C396.471 132.96 388.015 141.192 388.015 153.232ZM461.846 141.36V133.52H434.966V141.36H443.926V165.16H434.966V173H461.846V165.16H452.886V141.36H461.846ZM465.796 173H474.756V141.36L473.076 135.76H475.316L487.244 173H504.884V133.52H495.924V165.16L497.604 170.76H495.364L483.436 133.52H465.796V173ZM508.249 153.232C508.249 165.328 514.745 173.56 526.561 173.56C537.425 173.56 542.297 165.608 542.353 153.232H544.593L542.913 159.392V173H551.873V155.752C551.873 152.672 550.193 150.992 547.113 150.992H526.505V157.712H535.633C535.633 163.032 532.273 165.72 526.897 165.72C520.401 165.72 517.209 161.968 517.209 153.232C517.209 144.552 521.241 140.8 528.129 140.8C534.065 140.8 537.033 142.984 537.929 147.632H546.889C545.713 139.008 538.041 132.96 528.129 132.96C516.705 132.96 508.249 141.192 508.249 153.232Z" fill="black"/>
<path d="M564.119 173.56C567.815 173.56 570.335 170.872 570.335 167.344C570.335 163.928 567.815 161.24 564.119 161.24C560.311 161.24 558.015 163.928 558.015 167.344C558.015 170.872 560.311 173.56 564.119 173.56Z" fill="#5AFF15"/>
<defs>
<linearGradient id="paint0_linear_846_5430" x1="71.5" y1="24" x2="237.946" y2="114.76" gradientUnits="userSpaceOnUse">
<stop stop-color="#007AFF"/>
<stop offset="1" stop-color="#007AFF" stop-opacity="0"/>
</linearGradient>
</defs>
</svg>
