<svg width="249" height="131" viewBox="0 0 249 131" fill="none" xmlns="http://www.w3.org/2000/svg">
<path d="M61.4 0.299994C22.88 0.299994 0.200001 26.76 0.200001 65.46C0.200001 104.34 22.88 130.8 61.4 130.8C99.74 130.8 122.42 104.34 122.42 65.46C122.42 26.76 99.74 0.299994 61.4 0.299994ZM61.4 25.5C68.42 25.5 74.54 27.12 79.4 30.36L30.98 82.02C29.72 77.16 29 71.76 29 65.46C29 39.36 41.06 25.5 61.4 25.5ZM61.4 105.6C54.38 105.6 48.26 103.98 43.22 100.56L91.64 48.9C92.9 53.76 93.62 59.34 93.62 65.46C93.62 91.74 81.74 105.6 61.4 105.6ZM134.982 80.58C134.982 118.74 161.622 130.8 194.202 130.8C224.622 130.8 248.742 119.64 248.742 94.62C248.742 72.12 233.082 69.42 216.882 67.26V60.06C233.082 57.36 246.942 53.76 246.942 34.68C246.942 11.46 224.622 0.299994 194.202 0.299994C161.622 0.299994 136.782 12.36 136.782 45.12H165.582C165.582 30.54 171.702 25.5 194.202 25.5C212.742 25.5 218.142 29.82 218.142 38.28C218.142 46.56 213.282 51.06 202.482 51.06H184.842V76.26H202.482C213.282 76.26 219.942 80.94 219.942 91.02C219.942 101.28 212.742 105.6 194.202 105.6C171.702 105.6 163.782 100.56 163.782 80.58H134.982Z" fill="url(#paint0_linear_673_5196)"/>
<defs>
<linearGradient id="paint0_linear_673_5196" x1="44.5" y1="20" x2="206.994" y2="111.193" gradientUnits="userSpaceOnUse">
<stop stop-color="#007AFF"/>
<stop offset="1" stop-color="#007AFF" stop-opacity="0"/>
</linearGradient>
</defs>
</svg>
