<svg width="726" height="174" viewBox="0 0 726 174" fill="none" xmlns="http://www.w3.org/2000/svg">
<path d="M244.136 85.136C244.136 76.904 232.992 73.768 225.712 71.304C219.384 69.176 218.432 68.504 218.432 66.712C218.432 64.696 220.952 63.8 224.984 63.8C229.856 63.8 233.552 65.144 233.552 69.96H242.512C242.512 62.12 237.08 55.96 224.984 55.96C214.792 55.96 209.472 59.656 209.472 66.376C209.472 74.104 216.248 76.344 224.592 79.144C230.36 81.104 235.176 82.392 235.176 85.248C235.176 87.376 233.272 88.72 227.504 88.72C219.664 88.72 216.64 86.816 216.64 80.768H207.68C207.68 90.736 213 96.56 227.224 96.56C239.376 96.56 244.136 91.912 244.136 85.136ZM247.506 96H275.674V88.16H256.466V80.152H272.874V72.312H256.466V64.36H275.674V56.52H247.506V96ZM310.088 96H319.16L307.736 56.52H289.256L277.888 96H286.96L290.488 83.344H306.504L310.088 96ZM292.672 75.504L297.376 58.76H299.616L304.32 75.504H292.672ZM321.992 96H330.952V82.112H346.408V96H355.368V83.4C355.368 80.32 353.688 78.64 350.608 78.64H344.84V76.4C349.6 75.84 354.864 74.048 354.864 67.552C354.864 58.704 346.688 56.52 337.28 56.52H321.992V96ZM330.952 74.272V64.36H337.28C342.6 64.36 345.904 64.36 345.904 69.344C345.904 74.272 342.6 74.272 337.28 74.272H330.952ZM358.156 76.232C358.156 87.768 365.884 96.56 378.428 96.56C389.46 96.56 396.74 90.512 397.916 80.712H388.956C388.06 85.92 383.916 88.72 378.54 88.72C371.652 88.72 367.116 84.408 367.116 76.232C367.116 68.112 371.652 63.8 378.54 63.8C383.916 63.8 388.06 66.544 388.956 71.752H397.916C396.74 62.008 389.46 55.96 378.428 55.96C365.884 55.96 358.156 64.752 358.156 76.232ZM430.622 56.52V72.872H410.798V56.52H401.838V96H410.798V80.712H430.622V96H439.582V56.52H430.622ZM459.754 96H487.922V88.16H468.714V80.152H485.122V72.312H468.714V64.36H487.922V56.52H459.754V96ZM491.83 96H500.79V64.36L499.11 58.76H501.35L513.278 96H530.918V56.52H521.958V88.16L523.638 93.76H521.398L509.47 56.52H491.83V96ZM534.283 76.232C534.283 88.328 540.779 96.56 552.595 96.56C563.459 96.56 568.331 88.608 568.387 76.232H570.627L568.947 82.392V96H577.907V78.752C577.907 75.672 576.227 73.992 573.147 73.992H552.539V80.712H561.667C561.667 86.032 558.307 88.72 552.931 88.72C546.435 88.72 543.243 84.968 543.243 76.232C543.243 67.552 547.275 63.8 554.163 63.8C560.099 63.8 563.067 65.984 563.963 70.632H572.923C571.747 62.008 564.075 55.96 554.163 55.96C542.739 55.96 534.283 64.192 534.283 76.232ZM608.113 64.36V56.52H581.233V64.36H590.193V88.16H581.233V96H608.113V88.16H599.153V64.36H608.113ZM612.063 96H621.023V64.36L619.343 58.76H621.583L633.511 96H651.151V56.52H642.191V88.16L643.871 93.76H641.631L629.703 56.52H612.063V96ZM655.678 96H683.846V88.16H664.638V80.152H681.046V72.312H664.638V64.36H683.846V56.52H655.678V96ZM208.8 146.232C208.8 157.768 216.416 166.56 228.96 166.56C241.448 166.56 249.064 157.768 249.064 146.232C249.064 134.752 241.448 125.96 228.96 125.96C216.416 125.96 208.8 134.752 208.8 146.232ZM217.76 146.232C217.76 138.672 221.512 133.8 228.96 133.8C236.408 133.8 240.104 138.672 240.104 146.232C240.104 153.848 236.408 158.72 228.96 158.72C221.512 158.72 217.76 153.848 217.76 146.232ZM267.197 126.52H253.029V166H261.989V154.24H267.197C277.165 154.24 284.781 152.336 284.781 140.352C284.781 128.424 277.165 126.52 267.197 126.52ZM267.757 146.4H261.989V134.36H267.757C273.077 134.36 275.821 134.92 275.821 140.352C275.821 145.84 273.077 146.4 267.757 146.4ZM319.568 126.52H284.792V134.36H297.728V166H306.688V134.36H319.568V126.52ZM349.789 134.36V126.52H322.909V134.36H331.869V158.16H322.909V166H349.789V158.16H340.829V134.36H349.789ZM353.739 166H362.699V134.36L361.019 128.76H363.259L369.587 166H386.947L393.275 128.76H395.515L393.835 134.36V166H402.795V126.52H385.155L379.387 163.76H377.147L371.379 126.52H353.739V166ZM433.627 134.36V126.52H406.747V134.36H415.707V158.16H406.747V166H433.627V158.16H424.667V134.36H433.627ZM437.004 166H469.876V158.16H444.284L439.244 159.84V157.6L469.876 143.04V126.52H437.004V134.36H462.596L467.636 132.68V134.92L437.004 149.48V166ZM504.316 166H513.388L501.964 126.52H483.484L472.116 166H481.188L484.716 153.344H500.732L504.316 166ZM486.9 145.504L491.604 128.76H493.844L498.548 145.504H486.9ZM542.59 126.52H507.814V134.36H520.75V166H529.71V134.36H542.59V126.52ZM572.811 134.36V126.52H545.931V134.36H554.891V158.16H545.931V166H572.811V158.16H563.851V134.36H572.811ZM573.358 146.232C573.358 157.768 580.974 166.56 593.518 166.56C606.006 166.56 613.622 157.768 613.622 146.232C613.622 134.752 606.006 125.96 593.518 125.96C580.974 125.96 573.358 134.752 573.358 146.232ZM582.318 146.232C582.318 138.672 586.07 133.8 593.518 133.8C600.966 133.8 604.662 138.672 604.662 146.232C604.662 153.848 600.966 158.72 593.518 158.72C586.07 158.72 582.318 153.848 582.318 146.232ZM617.587 166H626.547V134.36L624.867 128.76H627.107L639.035 166H656.675V126.52H647.715V158.16L649.395 163.76H647.155L635.227 126.52H617.587V166Z" fill="black"/>
<path d="M668.959 166.56C672.655 166.56 675.175 163.872 675.175 160.344C675.175 156.928 672.655 154.24 668.959 154.24C665.151 154.24 662.855 156.928 662.855 160.344C662.855 163.872 665.151 166.56 668.959 166.56Z" fill="#5AFF15"/>
<path d="M68.4 0.299994C29.88 0.299994 7.2 26.76 7.2 65.46C7.2 104.34 29.88 130.8 68.4 130.8C106.74 130.8 129.42 104.34 129.42 65.46C129.42 26.76 106.74 0.299994 68.4 0.299994ZM68.4 25.5C75.42 25.5 81.54 27.12 86.4 30.36L37.98 82.02C36.72 77.16 36 71.76 36 65.46C36 39.36 48.06 25.5 68.4 25.5ZM68.4 105.6C61.38 105.6 55.26 103.98 50.22 100.56L98.64 48.9C99.9 53.76 100.62 59.34 100.62 65.46C100.62 91.74 88.74 105.6 68.4 105.6ZM140.266 82.38C140.266 116.94 166.546 130.8 200.026 130.8C233.506 130.8 255.826 116.04 255.826 81.12C255.826 51.96 237.826 36.3 215.506 36.3C197.686 36.3 184.366 45.3 177.526 65.1L171.586 61.68L176.986 45.48V27.3H245.746V2.09999H148.186V56.28L180.586 75C187.786 65.82 196.246 61.5 206.866 61.5C220.366 61.5 227.026 68.34 227.026 81.84C227.026 97.68 220.366 105.6 200.026 105.6C177.526 105.6 169.066 97.68 169.066 82.38H140.266Z" fill="url(#paint0_linear_693_5051)"/>
<defs>
<linearGradient id="paint0_linear_693_5051" x1="71.5" y1="20" x2="237.946" y2="110.76" gradientUnits="userSpaceOnUse">
<stop stop-color="#007AFF"/>
<stop offset="1" stop-color="#007AFF" stop-opacity="0"/>
</linearGradient>
</defs>
</svg>
