<svg width="248" height="131" viewBox="0 0 248 131" fill="none" xmlns="http://www.w3.org/2000/svg">
<path d="M61.4 0.299994C22.88 0.299994 0.200001 26.76 0.200001 65.46C0.200001 104.34 22.88 130.8 61.4 130.8C99.74 130.8 122.42 104.34 122.42 65.46C122.42 26.76 99.74 0.299994 61.4 0.299994ZM61.4 25.5C68.42 25.5 74.54 27.12 79.4 30.36L30.98 82.02C29.72 77.16 29 71.76 29 65.46C29 39.36 41.06 25.5 61.4 25.5ZM61.4 105.6C54.38 105.6 48.26 103.98 43.22 100.56L91.64 48.9C92.9 53.76 93.62 59.34 93.62 65.46C93.62 91.74 81.74 105.6 61.4 105.6ZM136.782 60.24H165.582C165.582 35.94 175.302 25.5 197.082 25.5C213.462 25.5 218.862 33.6 218.862 41.7C218.862 69.78 151.542 76.8 138.582 78.6V129H247.662V103.8H163.782L145.782 109.2V102C205.182 91.02 247.662 85.62 247.662 42.96C247.662 15.24 226.782 0.299994 196.722 0.299994C163.422 0.299994 136.782 17.58 136.782 60.24Z" fill="url(#paint0_linear_673_5194)"/>
<defs>
<linearGradient id="paint0_linear_673_5194" x1="67" y1="20" x2="226.529" y2="111.518" gradientUnits="userSpaceOnUse">
<stop stop-color="#007AFF"/>
<stop offset="1" stop-color="#007AFF" stop-opacity="0"/>
</linearGradient>
</defs>
</svg>
