<svg width="249" height="131" viewBox="0 0 249 131" fill="none" xmlns="http://www.w3.org/2000/svg">
<path d="M61.4 0.299994C22.88 0.299994 0.200001 26.76 0.200001 65.46C0.200001 104.34 22.88 130.8 61.4 130.8C99.74 130.8 122.42 104.34 122.42 65.46C122.42 26.76 99.74 0.299994 61.4 0.299994ZM61.4 25.5C68.42 25.5 74.54 27.12 79.4 30.36L30.98 82.02C29.72 77.16 29 71.76 29 65.46C29 39.36 41.06 25.5 61.4 25.5ZM61.4 105.6C54.38 105.6 48.26 103.98 43.22 100.56L91.64 48.9C92.9 53.76 93.62 59.34 93.62 65.46C93.62 91.74 81.74 105.6 61.4 105.6ZM133.266 82.38C133.266 116.94 159.546 130.8 193.026 130.8C226.506 130.8 248.826 116.04 248.826 81.12C248.826 51.96 230.826 36.3 208.506 36.3C190.686 36.3 177.366 45.3 170.526 65.1L164.586 61.68L169.986 45.48V27.3H238.746V2.09999H141.186V56.28L173.586 75C180.786 65.82 189.246 61.5 199.866 61.5C213.366 61.5 220.026 68.34 220.026 81.84C220.026 97.68 213.366 105.6 193.026 105.6C170.526 105.6 162.066 97.68 162.066 82.38H133.266Z" fill="url(#paint0_linear_673_5197)"/>
<defs>
<linearGradient id="paint0_linear_673_5197" x1="64.5" y1="20" x2="230.946" y2="110.76" gradientUnits="userSpaceOnUse">
<stop stop-color="#007AFF"/>
<stop offset="1" stop-color="#007AFF" stop-opacity="0"/>
</linearGradient>
</defs>
</svg>
