<svg width="726" height="174" viewBox="0 0 726 174" fill="none" xmlns="http://www.w3.org/2000/svg">
<path d="M68.4 0.299994C29.88 0.299994 7.2 26.76 7.2 65.46C7.2 104.34 29.88 130.8 68.4 130.8C106.74 130.8 129.42 104.34 129.42 65.46C129.42 26.76 106.74 0.299994 68.4 0.299994ZM68.4 25.5C75.42 25.5 81.54 27.12 86.4 30.36L37.98 82.02C36.72 77.16 36 71.76 36 65.46C36 39.36 48.06 25.5 68.4 25.5ZM68.4 105.6C61.38 105.6 55.26 103.98 50.22 100.56L98.64 48.9C99.9 53.76 100.62 59.34 100.62 65.46C100.62 91.74 88.74 105.6 68.4 105.6ZM143.782 60.24H172.582C172.582 35.94 182.302 25.5 204.082 25.5C220.462 25.5 225.862 33.6 225.862 41.7C225.862 69.78 158.542 76.8 145.582 78.6V129H254.662V103.8H170.782L152.782 109.2V102C212.182 91.02 254.662 85.62 254.662 42.96C254.662 15.24 233.782 0.299994 203.722 0.299994C170.422 0.299994 143.782 17.58 143.782 60.24Z" fill="url(#paint0_linear_932_6721)"/>
<path d="M208.8 76.232C208.8 88.328 215.296 96.56 227.112 96.56C237.976 96.56 242.848 88.608 242.904 76.232H245.144L243.464 82.392V96H252.424V78.752C252.424 75.672 250.744 73.992 247.664 73.992H227.056V80.712H236.184C236.184 86.032 232.824 88.72 227.448 88.72C220.952 88.72 217.76 84.968 217.76 76.232C217.76 67.552 221.792 63.8 228.68 63.8C234.616 63.8 237.584 65.984 238.48 70.632H247.44C246.264 62.008 238.592 55.96 228.68 55.96C217.256 55.96 208.8 64.192 208.8 76.232ZM256.883 96H265.843V82.112H281.299V96H290.259V83.4C290.259 80.32 288.579 78.64 285.499 78.64H279.731V76.4C284.491 75.84 289.755 74.048 289.755 67.552C289.755 58.704 281.579 56.52 272.171 56.52H256.883V96ZM265.843 74.272V64.36H272.171C277.491 64.36 280.795 64.36 280.795 69.344C280.795 74.272 277.491 74.272 272.171 74.272H265.843ZM326.383 96H335.455L324.031 56.52H305.551L294.183 96H303.255L306.783 83.344H322.799L326.383 96ZM308.967 75.504L313.671 58.76H315.911L320.615 75.504H308.967ZM353.575 56.52H339.407V96H348.367V84.24H353.575C363.543 84.24 371.159 82.336 371.159 70.352C371.159 58.424 363.543 56.52 353.575 56.52ZM354.135 76.4H348.367V64.36H354.135C359.455 64.36 362.199 64.92 362.199 70.352C362.199 75.84 359.455 76.4 354.135 76.4ZM404.449 56.52V72.872H384.625V56.52H375.665V96H384.625V80.712H404.449V96H413.409V56.52H404.449ZM445.352 64.36V56.52H418.472V64.36H427.432V88.16H418.472V96H445.352V88.16H436.392V64.36H445.352ZM447.019 76.232C447.019 87.768 454.747 96.56 467.291 96.56C478.323 96.56 485.603 90.512 486.779 80.712H477.819C476.923 85.92 472.779 88.72 467.403 88.72C460.515 88.72 455.979 84.408 455.979 76.232C455.979 68.112 460.515 63.8 467.403 63.8C472.779 63.8 476.923 66.544 477.819 71.752H486.779C485.603 62.008 478.323 55.96 467.291 55.96C454.747 55.96 447.019 64.752 447.019 76.232ZM223.92 129.52H209.36V169H223.92C234.448 169 245.424 166.256 245.424 149.232C245.424 132.264 234.448 129.52 223.92 129.52ZM223.92 161.16H218.32V137.36H223.92C230.92 137.36 236.464 137.92 236.464 149.232C236.464 160.6 230.92 161.16 223.92 161.16ZM250.485 169H278.653V161.16H259.445V153.152H275.853V145.312H259.445V137.36H278.653V129.52H250.485V169ZM317.909 158.136C317.909 149.904 306.765 146.768 299.485 144.304C293.157 142.176 292.205 141.504 292.205 139.712C292.205 137.696 294.725 136.8 298.757 136.8C303.629 136.8 307.325 138.144 307.325 142.96H316.285C316.285 135.12 310.853 128.96 298.757 128.96C288.565 128.96 283.245 132.656 283.245 139.376C283.245 147.104 290.021 149.344 298.365 152.144C304.133 154.104 308.949 155.392 308.949 158.248C308.949 160.376 307.045 161.72 301.277 161.72C293.437 161.72 290.413 159.816 290.413 153.768H281.453C281.453 163.736 286.773 169.56 300.997 169.56C313.149 169.56 317.909 164.912 317.909 158.136ZM347.571 137.36V129.52H320.691V137.36H329.651V161.16H320.691V169H347.571V161.16H338.611V137.36H347.571ZM349.238 149.232C349.238 161.328 355.734 169.56 367.55 169.56C378.414 169.56 383.286 161.608 383.342 149.232H385.582L383.902 155.392V169H392.862V151.752C392.862 148.672 391.182 146.992 388.102 146.992H367.494V153.712H376.622C376.622 159.032 373.262 161.72 367.886 161.72C361.39 161.72 358.198 157.968 358.198 149.232C358.198 140.552 362.23 136.8 369.118 136.8C375.054 136.8 378.022 138.984 378.918 143.632H387.878C386.702 135.008 379.03 128.96 369.118 128.96C357.694 128.96 349.238 137.192 349.238 149.232ZM397.321 169H406.281V137.36L404.601 131.76H406.841L418.769 169H436.409V129.52H427.449V161.16L429.129 166.76H426.889L414.961 129.52H397.321V169ZM468.375 137.36V129.52H441.495V137.36H450.455V161.16H441.495V169H468.375V161.16H459.415V137.36H468.375ZM473.446 169H482.406V137.36L480.726 131.76H482.966L494.894 169H512.534V129.52H503.574V161.16L505.254 166.76H503.014L491.086 129.52H473.446V169ZM517.019 149.232C517.019 161.328 523.515 169.56 535.331 169.56C546.195 169.56 551.067 161.608 551.123 149.232H553.363L551.683 155.392V169H560.643V151.752C560.643 148.672 558.963 146.992 555.883 146.992H535.275V153.712H544.403C544.403 159.032 541.043 161.72 535.667 161.72C529.171 161.72 525.979 157.968 525.979 149.232C525.979 140.552 530.011 136.8 536.899 136.8C542.835 136.8 545.803 138.984 546.699 143.632H555.659C554.483 135.008 546.811 128.96 536.899 128.96C525.475 128.96 517.019 137.192 517.019 149.232Z" fill="black"/>
<path d="M574.008 169.56C577.704 169.56 580.224 166.872 580.224 163.344C580.224 159.928 577.704 157.24 574.008 157.24C570.2 157.24 567.904 159.928 567.904 163.344C567.904 166.872 570.2 169.56 574.008 169.56Z" fill="#5AFF15"/>
<defs>
<linearGradient id="paint0_linear_932_6721" x1="74" y1="20" x2="233.529" y2="111.518" gradientUnits="userSpaceOnUse">
<stop stop-color="#007AFF"/>
<stop offset="1" stop-color="#007AFF" stop-opacity="0"/>
</linearGradient>
</defs>
</svg>
