<svg width="249" height="131" viewBox="0 0 249 131" fill="none" xmlns="http://www.w3.org/2000/svg">
<path d="M61.4002 0.299805C22.8802 0.299805 0.200195 26.7598 0.200195 65.4598C0.200195 104.34 22.8802 130.8 61.4002 130.8C99.7402 130.8 122.42 104.34 122.42 65.4598C122.42 26.7598 99.7402 0.299805 61.4002 0.299805ZM61.4002 25.4998C68.4202 25.4998 74.5402 27.1198 79.4002 30.3598L30.9802 82.0198C29.7202 77.1598 29.0002 71.7598 29.0002 65.4598C29.0002 39.3598 41.0602 25.4998 61.4002 25.4998ZM61.4002 105.6C54.3802 105.6 48.2602 103.98 43.2202 100.56L91.6402 48.8998C92.9002 53.7598 93.6202 59.3398 93.6202 65.4598C93.6202 91.7398 81.7402 105.6 61.4002 105.6Z" fill="url(#paint0_linear_502_4811)"/>
<path d="M133.267 82.3798C133.267 116.94 159.547 130.8 193.027 130.8C226.507 130.8 248.827 116.04 248.827 81.1198C248.827 51.9598 230.827 36.2998 208.507 36.2998C190.687 36.2998 177.367 45.2998 170.527 65.0998L164.587 61.6798L169.987 45.4798V27.2998H238.747V2.0998H141.187V56.2798L173.587 74.9998C180.787 65.8198 189.247 61.4998 199.867 61.4998C213.367 61.4998 220.027 68.3398 220.027 81.8398C220.027 97.6798 213.367 105.6 193.027 105.6C170.527 105.6 162.067 97.6798 162.067 82.3798H133.267Z" fill="url(#paint1_linear_502_4811)"/>
<defs>
<linearGradient id="paint0_linear_502_4811" x1="64.5002" y1="20" x2="230.946" y2="110.76" gradientUnits="userSpaceOnUse">
<stop stop-color="#007AFF"/>
<stop offset="1" stop-color="#007AFF" stop-opacity="0"/>
</linearGradient>
<linearGradient id="paint1_linear_502_4811" x1="64.5002" y1="20" x2="230.946" y2="110.76" gradientUnits="userSpaceOnUse">
<stop stop-color="#007AFF"/>
<stop offset="1" stop-color="#007AFF" stop-opacity="0"/>
</linearGradient>
</defs>
</svg>
