<svg width="312" height="65" viewBox="0 0 312 65" fill="none" xmlns="http://www.w3.org/2000/svg">
<rect width="312" height="65" rx="32.5" fill="#007AFF"/>
<path d="M112.949 34.44C112.949 31.5 109.749 30.74 106.989 29.88C104.669 29.16 103.429 28.62 103.429 27.14C103.429 25.58 104.849 25.1 106.789 25.1C108.949 25.1 110.729 26.14 110.729 28.54H112.369C112.369 26.24 110.949 23.7 106.789 23.7C103.309 23.7 101.789 25.02 101.789 27.18C101.789 29.68 103.809 30.44 106.589 31.28C108.829 31.94 111.309 32.38 111.309 34.52C111.309 36.22 109.929 36.8 107.529 36.8C104.569 36.8 102.789 36.06 102.789 32.72H101.149C101.149 36.02 102.609 38.2 107.529 38.2C111.689 38.2 112.949 36.54 112.949 34.44ZM119.166 36.8C117.446 36.8 116.646 36 116.646 33.92V28.06H115.006V34.14C115.006 36.9 116.466 38.2 118.726 38.2C120.886 38.2 122.146 36.94 122.546 35.14H123.006L122.746 36.28V38H124.366V28.06H122.746V32.48C122.746 35.14 121.266 36.8 119.166 36.8ZM127.042 38H128.682V36.54L128.422 35.42H128.882C129.302 36.96 130.642 38.2 132.922 38.2C135.802 38.2 137.642 35.98 137.642 33.02C137.642 30.08 135.802 27.86 132.922 27.86C130.642 27.86 129.302 29.1 128.882 30.66H128.422L128.682 29.52V23.3H127.042V38ZM128.682 33.02C128.682 30.38 130.382 29.26 132.422 29.26C134.482 29.26 136.002 30.38 136.002 33.02C136.002 35.68 134.482 36.8 132.422 36.8C130.382 36.8 128.682 35.68 128.682 33.02ZM152.153 27.86C150.033 27.86 148.993 29.08 148.593 30.88H148.293C148.073 29.1 147.113 27.86 145.313 27.86C143.193 27.86 142.153 29.08 141.753 30.88H141.293L141.553 29.76V28.06H139.913V38H141.553V33.62C141.553 31.02 142.733 29.26 144.713 29.26C146.333 29.26 146.753 30.2 146.753 32.12V38H148.393V33.62C148.393 31.02 149.573 29.26 151.553 29.26C153.173 29.26 153.593 30.2 153.593 32.12V38H155.233V31.74C155.233 29.52 154.233 27.86 152.153 27.86ZM160.626 26.48C161.426 26.48 162.066 25.88 162.066 25.08C162.066 24.32 161.426 23.7 160.626 23.7C159.806 23.7 159.186 24.32 159.186 25.08C159.186 25.88 159.806 26.48 160.626 26.48ZM157.306 38H164.446V36.6H161.646V29.06C161.646 28.3 161.286 27.78 160.346 27.86L158.046 28.06V29.46L160.106 29.28V36.6H157.306V38ZM168.339 36.82V29.46H171.439V28.06H168.339V25L166.719 25.5V28.06H164.519V29.46H166.719V36.84C166.719 37.76 167.139 38.26 168.079 38.2L171.839 38V36.6L168.339 36.82Z" fill="white"/>
<circle cx="279.5" cy="32.5" r="28.5" fill="white"/>
<path d="M270.5 32H297.5M297.5 32L288.909 24M297.5 32L288.909 40" stroke="#141414" stroke-width="2" stroke-linecap="round" stroke-linejoin="round"/>
<circle cx="267.5" cy="32" r="3" stroke="#141414" stroke-width="2"/>
</svg>
