<svg width="448" height="410" viewBox="0 0 448 410" fill="none" xmlns="http://www.w3.org/2000/svg">
<path d="M362.43 250.838L118.138 368.21L96.795 323.788L296.58 227.8L200.774 28.3934L245.28 7.00981L362.43 250.838Z" fill="#5AFF15"/>
<path d="M327.029 12.9493L319.772 33.6587L372.358 52.0567L288.795 92.2055C245.757 112.935 212.69 149.865 196.855 194.887C181.02 239.908 183.711 289.339 204.339 332.326L225.171 375.683C215.667 383.271 209.286 394.084 207.247 406.058C205.207 418.033 207.651 430.332 214.112 440.61C220.573 450.888 230.6 458.424 242.279 461.783C253.958 465.141 266.473 464.086 277.436 458.819C288.399 453.551 297.043 444.441 301.719 433.224C306.396 422.007 306.778 409.47 302.791 398.003C298.805 386.536 290.731 376.943 280.107 371.052C269.484 365.161 257.056 363.385 245.193 366.064L224.361 322.706C206.375 285.058 204.063 241.804 217.929 202.41C231.796 163.016 260.713 130.689 298.352 112.502L382.073 72.2772L363.247 125.762L383.95 133.038L415.082 43.7557L327.029 12.9493ZM280.439 402.496C282.772 407.353 283.61 412.794 282.847 418.131C282.084 423.468 279.754 428.461 276.151 432.48C272.548 436.499 267.835 439.362 262.607 440.707C257.38 442.053 251.872 441.82 246.781 440.039C241.691 438.258 237.245 435.008 234.007 430.701C230.769 426.394 228.884 421.222 228.59 415.84C228.297 410.458 229.607 405.108 232.357 400.466C235.107 395.824 239.171 392.098 244.037 389.76C250.564 386.637 258.061 386.224 264.884 388.611C271.707 390.998 277.301 395.991 280.439 402.496Z" fill="#0E0638"/>
<path d="M245.28 7.00949L200.773 28.3931L296.429 227.484L340.935 206.1L245.28 7.00949Z" fill="#5AFF15"/>
</svg>
