<svg width="64" height="64" viewBox="0 0 64 64" fill="none" xmlns="http://www.w3.org/2000/svg">
<circle cx="32" cy="32" r="32" fill="#0E0638"/>
<path d="M38.4821 37.4356H14V32.9838H34.0218V13H38.4821V37.4356Z" fill="#5AFF15"/>
<path d="M44.9055 16.6816L43.5045 18.0839L47.0663 21.6391H38.6919C34.3768 21.6433 30.2397 23.3566 27.1892 26.4028C24.1387 29.449 22.4241 33.5791 22.422 37.886V42.2312C21.3514 42.4772 20.4089 43.1079 19.7744 44.0032C19.1398 44.8984 18.8577 45.9954 18.9817 47.085C19.1058 48.1745 19.6273 49.1804 20.4468 49.9108C21.2664 50.6411 22.3266 51.0447 23.4253 51.0447C24.524 51.0447 25.5842 50.6411 26.4037 49.9108C27.2233 49.1804 27.7448 48.1745 27.8689 47.085C27.9929 45.9954 27.7107 44.8984 27.0762 44.0032C26.4417 43.1079 25.4992 42.4772 24.4286 42.2312V37.886C24.4369 34.1171 25.9407 30.5049 28.6108 27.8398C31.2809 25.1748 34.9 23.6738 38.6761 23.6655H47.0663L43.4411 27.2838L44.8421 28.6861L50.8697 22.6345L44.9055 16.6816ZM25.8731 46.5763C25.8731 47.0631 25.7285 47.5389 25.4576 47.9436C25.1866 48.3483 24.8016 48.6637 24.351 48.8499C23.9005 49.0362 23.4047 49.0849 22.9265 48.99C22.4482 48.895 22.0088 48.6607 21.664 48.3165C21.3192 47.9723 21.0844 47.5338 20.9892 47.0564C20.8941 46.5791 20.9429 46.0843 21.1295 45.6346C21.3162 45.1849 21.6322 44.8006 22.0377 44.5301C22.4431 44.2597 22.9198 44.1154 23.4075 44.1154C24.0611 44.1164 24.6876 44.3761 25.1498 44.8373C25.6119 45.2986 25.8721 45.924 25.8731 46.5763Z" fill="#007AFF"/>
<path d="M38.4818 13H34.0215V32.9522H38.4818V13Z" fill="#5AFF15"/>
</svg>
