<svg width="60" height="60" viewBox="0 0 60 60" fill="none" xmlns="http://www.w3.org/2000/svg">
<circle cx="30" cy="30" r="30" fill="#141414"/>
<path d="M29.9957 21.7905C25.4527 21.7905 21.7863 25.4569 21.7863 30C21.7863 34.5431 25.4527 38.2095 29.9957 38.2095C34.5387 38.2095 38.2051 34.5431 38.2051 30C38.2051 25.4569 34.5387 21.7905 29.9957 21.7905ZM29.9957 35.3356C27.0578 35.3356 24.6602 32.938 24.6602 30C24.6602 27.062 27.0578 24.6644 29.9957 24.6644C32.9336 24.6644 35.3312 27.062 35.3312 30C35.3312 32.938 32.9336 35.3356 29.9957 35.3356ZM38.5413 19.5409C37.4806 19.5409 36.6241 20.3975 36.6241 21.4582C36.6241 22.5189 37.4806 23.3755 38.5413 23.3755C39.602 23.3755 40.4586 22.5229 40.4586 21.4582C40.4589 21.2064 40.4095 20.9569 40.3133 20.7241C40.217 20.4914 40.0758 20.2799 39.8977 20.1018C39.7196 19.9237 39.5082 19.7825 39.2754 19.6862C39.0426 19.59 38.7932 19.5406 38.5413 19.5409ZM45.9982 30C45.9982 27.7905 46.0182 25.601 45.8941 23.3955C45.7701 20.8338 45.1857 18.5603 43.3125 16.687C41.4352 14.8097 39.1657 14.2293 36.604 14.1053C34.3946 13.9812 32.2052 14.0012 29.9997 14.0012C27.7902 14.0012 25.6008 13.9812 23.3954 14.1053C20.8337 14.2293 18.5602 14.8137 16.687 16.687C14.8097 18.5643 14.2293 20.8338 14.1053 23.3955C13.9812 25.605 14.0012 27.7945 14.0012 30C14.0012 32.2055 13.9812 34.399 14.1053 36.6045C14.2293 39.1662 14.8137 41.4397 16.687 43.313C18.5642 45.1903 20.8337 45.7707 23.3954 45.8947C25.6048 46.0188 27.7943 45.9988 29.9997 45.9988C32.2092 45.9988 34.3986 46.0188 36.604 45.8947C39.1657 45.7707 41.4392 45.1863 43.3125 43.313C45.1897 41.4357 45.7701 39.1662 45.8941 36.6045C46.0222 34.399 45.9982 32.2095 45.9982 30ZM42.4759 39.4384C42.1837 40.1669 41.8315 40.7112 41.2671 41.2716C40.7027 41.836 40.1624 42.1882 39.4339 42.4804C37.3285 43.317 32.3292 43.1289 29.9957 43.1289C27.6622 43.1289 22.6589 43.317 20.5535 42.4844C19.825 42.1922 19.2807 41.84 18.7203 41.2756C18.1559 40.7112 17.8037 40.1709 17.5115 39.4424C16.679 37.333 16.8671 32.3336 16.8671 30C16.8671 27.6664 16.679 22.663 17.5115 20.5576C17.8037 19.8291 18.1559 19.2848 18.7203 18.7244C19.2847 18.164 19.825 17.8078 20.5535 17.5156C22.6589 16.683 27.6622 16.8711 29.9957 16.8711C32.3292 16.8711 37.3325 16.683 39.4379 17.5156C40.1664 17.8078 40.7107 18.16 41.2711 18.7244C41.8355 19.2888 42.1877 19.8291 42.4799 20.5576C43.3125 22.663 43.1243 27.6664 43.1243 30C43.1243 32.3336 43.3125 37.333 42.4759 39.4384Z" fill="white"/>
</svg>
