<svg width="59" height="59" viewBox="0 0 59 59" fill="none" xmlns="http://www.w3.org/2000/svg">
<g clip-path="url(#clip0_1450_11540)">
<path d="M48.8226 38.8638L48.8226 34.3549C48.8227 34.1541 48.7429 33.9615 48.6009 33.8195C48.4589 33.6775 48.2664 33.5978 48.0655 33.5978H46.3024C45.3046 28.004 41.5647 23.3403 36.5301 21.0555H43.4647C43.5831 21.4232 43.7863 21.7608 44.0673 22.0418C44.5331 22.5076 45.1524 22.7641 45.8112 22.764C47.1707 22.7639 48.2769 21.6577 48.2769 20.2982C48.277 19.6397 48.0205 19.0205 47.5548 18.5548C47.089 18.089 46.4698 17.8325 45.8111 17.8327C44.7157 17.8326 43.7858 18.5511 43.4653 19.5413L32.5115 19.5412V18.044C32.5116 17.6258 32.1725 17.2867 31.7544 17.2869H27.2456C27.0447 17.2868 26.8522 17.3666 26.7102 17.5086C26.5681 17.6506 26.4885 17.8431 26.4885 18.044L26.4885 19.5412L15.535 19.5412C15.4167 19.1733 15.2134 18.8359 14.9324 18.5549C14.4667 18.0892 13.8476 17.8327 13.1889 17.8327C12.5302 17.8325 11.911 18.089 11.4452 18.5548C10.9794 19.0206 10.7229 19.6398 10.7231 20.2984C10.7231 20.957 10.9795 21.5762 11.4451 22.0419C11.9109 22.5076 12.53 22.7641 13.1888 22.764C14.2844 22.7641 15.2141 22.0455 15.5347 21.0552L22.4698 21.0553C17.435 23.3403 13.6953 28.0041 12.6978 33.5979L10.9344 33.5979C10.5162 33.5978 10.1772 33.9368 10.1774 34.3549L10.1774 38.8638C10.1773 39.0728 10.2621 39.2622 10.3991 39.3991C10.536 39.5361 10.7254 39.6209 10.9344 39.6208L15.4433 39.6208C15.8615 39.6209 16.2005 39.2819 16.2003 38.8638L16.2003 34.3549C16.2005 33.9368 15.8613 33.5976 15.4433 33.5979L14.2406 33.5979C15.4516 27.4346 20.3252 22.561 26.4885 21.3499L26.4885 22.5526C26.4885 22.7616 26.5733 22.9509 26.7103 23.0879C26.8473 23.2249 27.0366 23.3096 27.2456 23.3096L31.7543 23.3097C31.9553 23.3097 32.1477 23.2301 32.2898 23.088C32.4318 22.946 32.5115 22.7535 32.5115 22.5526L32.5115 21.3498C38.6744 22.5609 43.5479 27.4343 44.7595 33.5978L43.5568 33.5978C43.1387 33.5978 42.7997 33.9368 42.7998 34.3548L42.7997 38.8636C42.7997 39.0645 42.8794 39.257 43.0214 39.399C43.1634 39.541 43.356 39.6208 43.5568 39.6207L48.0656 39.6207C48.4837 39.621 48.8227 39.282 48.8226 38.8638ZM14.6862 35.1123L14.6862 38.1067L11.6918 38.1067L11.6917 35.1122L14.6862 35.1123ZM45.8111 19.3467C46.0654 19.3468 46.3042 19.4458 46.484 19.6256C46.6637 19.8053 46.7627 20.0442 46.7627 20.2983C46.7627 20.823 46.3358 21.2498 45.8112 21.2499C45.557 21.2498 45.318 21.1509 45.1382 20.9711C44.9586 20.7916 44.8598 20.5529 44.8595 20.2991L44.8596 20.2985C44.8596 20.2983 44.8595 20.298 44.8595 20.298C44.8598 19.7734 45.2866 19.3467 45.8111 19.3467ZM13.1889 21.2498C12.9346 21.2498 12.6957 21.1509 12.5159 20.9711C12.3362 20.7914 12.2373 20.5526 12.2373 20.2983C12.2373 20.0442 12.3363 19.8053 12.516 19.6256C12.6958 19.4458 12.9347 19.3467 13.1889 19.3467C13.4431 19.3468 13.682 19.4458 13.8617 19.6255C14.0412 19.805 14.1402 20.0437 14.1405 20.2975L14.1404 20.2981C14.1404 20.2983 14.1405 20.2986 14.1405 20.2986C14.1402 20.8231 13.7134 21.2498 13.1889 21.2498ZM28.0029 21.7957L28.0028 20.2988C28.0028 20.2986 28.0029 20.2986 28.0029 20.2986C28.0029 20.2982 28.0029 20.298 28.0028 20.2979L28.0028 18.801H30.9972L30.9973 20.2955C30.9972 20.2965 30.9969 20.2973 30.9969 20.2982C30.9969 20.2991 30.9972 20.2999 30.9972 20.3008L30.9972 20.4375C30.9972 20.4403 30.9972 20.443 30.9972 20.4459V21.7958L28.0029 21.7957ZM44.3138 38.1066L44.3139 35.1123L47.3083 35.1122L47.3083 38.1066L44.3138 38.1066Z" fill="black"/>
</g>
<defs>
<clipPath id="clip0_1450_11540">
<rect width="41.0123" height="41.0123" fill="white" transform="translate(29.5 0.5) rotate(45)"/>
</clipPath>
</defs>
</svg>
