<svg width="726" height="248" viewBox="0 0 726 248" fill="none" xmlns="http://www.w3.org/2000/svg">
<path d="M68.4 0.299994C29.88 0.299994 7.2 26.76 7.2 65.46C7.2 104.34 29.88 130.8 68.4 130.8C106.74 130.8 129.42 104.34 129.42 65.46C129.42 26.76 106.74 0.299994 68.4 0.299994ZM68.4 25.5C75.42 25.5 81.54 27.12 86.4 30.36L37.98 82.02C36.72 77.16 36 71.76 36 65.46C36 39.36 48.06 25.5 68.4 25.5ZM68.4 105.6C61.38 105.6 55.26 103.98 50.22 100.56L98.64 48.9C99.9 53.76 100.62 59.34 100.62 65.46C100.62 91.74 88.74 105.6 68.4 105.6ZM140.266 82.38C140.266 116.94 166.546 130.8 200.026 130.8C233.506 130.8 255.826 116.04 255.826 81.12C255.826 51.96 237.826 36.3 215.506 36.3C197.686 36.3 184.366 45.3 177.526 65.1L171.586 61.68L176.986 45.48V27.3H245.746V2.09999H148.186V56.28L180.586 75C187.786 65.82 196.246 61.5 206.866 61.5C220.366 61.5 227.026 68.34 227.026 81.84C227.026 97.68 220.366 105.6 200.026 105.6C177.526 105.6 169.066 97.68 169.066 82.38H140.266Z" fill="url(#paint0_linear_932_7016)"/>
<path d="M223.92 56.52H209.36V96H223.92C234.448 96 245.424 93.256 245.424 76.232C245.424 59.264 234.448 56.52 223.92 56.52ZM223.92 88.16H218.32V64.36H223.92C230.92 64.36 236.464 64.92 236.464 76.232C236.464 87.6 230.92 88.16 223.92 88.16ZM274.563 64.36V56.52H247.683V64.36H256.643V88.16H247.683V96H274.563V88.16H265.603V64.36H274.563ZM276.23 76.232C276.23 88.328 282.726 96.56 294.542 96.56C305.406 96.56 310.278 88.608 310.334 76.232H312.574L310.894 82.392V96H319.854V78.752C319.854 75.672 318.174 73.992 315.094 73.992H294.486V80.712H303.614C303.614 86.032 300.254 88.72 294.878 88.72C288.382 88.72 285.19 84.968 285.19 76.232C285.19 67.552 289.222 63.8 296.11 63.8C302.046 63.8 305.014 65.984 305.91 70.632H314.87C313.694 62.008 306.022 55.96 296.11 55.96C284.686 55.96 276.23 64.192 276.23 76.232ZM351.18 64.36V56.52H324.3V64.36H333.26V88.16H324.3V96H351.18V88.16H342.22V64.36H351.18ZM390.44 56.52H355.664V64.36H368.6V96H377.56V64.36H390.44V56.52ZM418.695 96H427.767L416.343 56.52H397.863L386.495 96H395.567L399.095 83.344H415.111L418.695 96ZM401.279 75.504L405.983 58.76H408.223L412.927 75.504H401.279ZM436.535 96.56L459.887 96V88.16L440.679 88.72V56.52H431.719V91.856C431.719 94.936 433.455 96.616 436.535 96.56ZM209.36 169H218.32V137.36L216.64 131.76H218.88L225.208 169H242.568L248.896 131.76H251.136L249.456 137.36V169H258.416V129.52H240.776L235.008 166.76H232.768L227 129.52H209.36V169ZM294.554 169H303.626L292.202 129.52H273.722L262.354 169H271.426L274.954 156.344H290.97L294.554 169ZM277.138 148.504L281.842 131.76H284.082L288.786 148.504H277.138ZM307.579 169H316.539V155.112H331.995V169H340.955V156.4C340.955 153.32 339.275 151.64 336.195 151.64H330.427V149.4C335.187 148.84 340.451 147.048 340.451 140.552C340.451 131.704 332.275 129.52 322.867 129.52H307.579V169ZM316.539 147.272V137.36H322.867C328.187 137.36 331.491 137.36 331.491 142.344C331.491 147.272 328.187 147.272 322.867 147.272H316.539ZM385.155 129.52H372.051L355.531 143.52V129.52H346.571V169H355.531V155.056L372.051 169H385.155L361.355 149.288L385.155 129.52ZM388.516 169H416.684V161.16H397.476V153.152H413.884V145.312H397.476V137.36H416.684V129.52H388.516V169ZM455.354 129.52H420.578V137.36H433.514V169H442.474V137.36H455.354V129.52ZM486.696 137.36V129.52H459.816V137.36H468.776V161.16H459.816V169H486.696V161.16H477.736V137.36H486.696ZM491.766 169H500.726V137.36L499.046 131.76H501.286L513.214 169H530.854V129.52H521.894V161.16L523.574 166.76H521.334L509.406 129.52H491.766V169ZM535.339 149.232C535.339 161.328 541.835 169.56 553.651 169.56C564.515 169.56 569.387 161.608 569.443 149.232H571.683L570.003 155.392V169H578.963V151.752C578.963 148.672 577.283 146.992 574.203 146.992H553.595V153.712H562.723C562.723 159.032 559.363 161.72 553.987 161.72C547.491 161.72 544.299 157.968 544.299 149.232C544.299 140.552 548.331 136.8 555.219 136.8C561.155 136.8 564.123 138.984 565.019 143.632H573.979C572.803 135.008 565.131 128.96 555.219 128.96C543.795 128.96 535.339 137.192 535.339 149.232ZM258.696 242.784L250.968 233.544C254.72 228.896 256.792 222.68 256.792 215.4H247.832C247.832 219.824 246.936 223.632 245.256 226.712L231.648 210.36H249.904V202.52H219.328V206.384L228.288 217.864V220.104C226.496 218.144 224.144 216.632 220.56 216.632C215.576 216.632 209.92 219.824 209.92 227.44C209.92 237.408 217.984 242.56 230.248 242.56C235.904 242.56 240.832 241.272 244.808 238.864L251.64 247.6L258.696 242.784ZM230.248 234.72C222.8 234.72 218.88 232.536 218.88 227.776C218.88 223.968 222.016 222.008 225.936 222.008C230.024 222.008 232.992 223.744 236.408 228.112L239.768 232.424C237.192 233.936 234 234.72 230.248 234.72ZM316.433 231.136C316.433 222.904 305.289 219.768 298.009 217.304C291.681 215.176 290.729 214.504 290.729 212.712C290.729 210.696 293.249 209.8 297.281 209.8C302.153 209.8 305.849 211.144 305.849 215.96H314.809C314.809 208.12 309.377 201.96 297.281 201.96C287.089 201.96 281.769 205.656 281.769 212.376C281.769 220.104 288.545 222.344 296.889 225.144C302.657 227.104 307.473 228.392 307.473 231.248C307.473 233.376 305.569 234.72 299.801 234.72C291.961 234.72 288.937 232.816 288.937 226.768H279.977C279.977 236.736 285.297 242.56 299.521 242.56C311.673 242.56 316.433 237.912 316.433 231.136ZM320.923 242H349.091V234.16H329.883V226.152H346.291V218.312H329.883V210.36H349.091V202.52H320.923V242ZM351.316 222.232C351.316 233.768 358.932 242.56 371.476 242.56C383.964 242.56 391.58 233.768 391.58 222.232C391.58 210.752 383.964 201.96 371.476 201.96C358.932 201.96 351.316 210.752 351.316 222.232ZM360.276 222.232C360.276 214.672 364.028 209.8 371.476 209.8C378.924 209.8 382.62 214.672 382.62 222.232C382.62 229.848 378.924 234.72 371.476 234.72C364.028 234.72 360.276 229.848 360.276 222.232Z" fill="black"/>
<path d="M404.422 242.56C408.118 242.56 410.638 239.872 410.638 236.344C410.638 232.928 408.118 230.24 404.422 230.24C400.614 230.24 398.318 232.928 398.318 236.344C398.318 239.872 400.614 242.56 404.422 242.56Z" fill="#5AFF15"/>
<defs>
<linearGradient id="paint0_linear_932_7016" x1="54" y1="20" x2="238.605" y2="116.77" gradientUnits="userSpaceOnUse">
<stop stop-color="#007AFF"/>
<stop offset="1" stop-color="#007AFF" stop-opacity="0"/>
</linearGradient>
</defs>
</svg>
