<svg width="89" height="75" viewBox="0 0 89 75" fill="none" xmlns="http://www.w3.org/2000/svg">
<path d="M25 42.6C29.48 42.6 33.0267 44.0933 35.64 47.08C38.44 49.88 39.84 53.6133 39.84 58.28C39.84 63.32 38.16 67.3333 34.8 70.32C31.6267 73.12 27.24 74.52 21.64 74.52C15.1067 74.52 9.97333 72 6.24 66.96C2.69333 61.92 0.92 54.7333 0.92 45.4C0.92 37 2.78667 29.2533 6.52 22.16C10.2533 14.88 15.8533 7.59999 23.32 0.319995C23.5067 0.133331 23.7867 0.0399985 24.16 0.0399985C24.72 0.0399985 25.1867 0.319995 25.56 0.879988C25.9333 1.43999 25.9333 1.90666 25.56 2.27999C16.4133 11.6133 11.84 22.6267 11.84 35.32C11.84 40.5467 12.7733 44.3733 14.64 46.8C16.32 44 19.7733 42.6 25 42.6ZM73.44 42.6C77.92 42.6 81.4667 44.0933 84.08 47.08C86.88 49.88 88.28 53.6133 88.28 58.28C88.28 63.32 86.6 67.3333 83.24 70.32C80.0667 73.12 75.68 74.52 70.08 74.52C63.5467 74.52 58.4133 72 54.68 66.96C51.1333 61.92 49.36 54.7333 49.36 45.4C49.36 37 51.2267 29.2533 54.96 22.16C58.6933 14.88 64.2933 7.59999 71.76 0.319995C71.9467 0.133331 72.2267 0.0399985 72.6 0.0399985C73.16 0.0399985 73.6267 0.319995 74 0.879988C74.3733 1.43999 74.3733 1.90666 74 2.27999C64.8533 11.6133 60.28 22.6267 60.28 35.32C60.28 40.5467 61.2133 44.3733 63.08 46.8C64.76 44 68.2133 42.6 73.44 42.6Z" fill="#0E0638"/>
</svg>
